<?xml version="1.0" encoding="utf-8"?>
<!-- Svg Vector Icons : http://www.onlinewebfonts.com/icon -->
<!DOCTYPE svg PUBLIC "-//W3C//DTD SVG 1.1//EN" "http://www.w3.org/Graphics/SVG/1.1/DTD/svg11.dtd">
<svg version="1.1" xmlns="http://www.w3.org/2000/svg" xmlns:xlink="http://www.w3.org/1999/xlink" x="0px" y="0px" viewBox="0 0 1000 1000" enable-background="new 0 0 1000 1000" xml:space="preserve">
<metadata> Svg Vector Icons : http://www.onlinewebfonts.com/icon </metadata>
<g><g transform="translate(0.000000,512.000000) scale(0.100000,-0.100000)"><path d="M4980.8,4929.5c0-52-9.6-304.2-19.3-564c-17.3-421.6-23.1-475.5-55.8-500.5c-61.6-52-73.1-100.1-86.6-346.5c-17.3-286.8-44.3-425.4-88.5-456.2c-19.3-13.5-48.1-82.8-67.4-159.8c-32.7-130.9-34.6-134.8-94.3-134.8c-98.2,0-107.8-25-107.8-254.1v-207.9h-53.9c-96.3,0-100.1-17.3-100.1-408.1v-361.9h-53.9c-28.9,0-63.5-9.6-77-23.1c-17.3-17.3-23.1-446.6-23.1-1809.6v-1786.4h-92.4c-50.1,0-102-9.6-115.5-23.1c-17.3-17.3-23.1-138.6-23.1-423.5v-400.4h-92.4c-50.1,0-102-9.6-115.5-23.1c-17.3-17.3-23.1-171.3-23.1-577.5v-554.4h-130.9c-77,0-140.5-9.6-154-23.1c-32.7-32.7-32.7-614.1,0-646.8c32.7-32.7,3155.2-32.7,3187.9,0c32.7,32.7,32.7,614.1,0,646.8c-13.5,13.5-77,23.1-154,23.1H6309v554.4c0,406.2-5.8,560.2-23.1,577.5c-13.5,13.5-65.4,23.1-115.5,23.1H6078v400.4c0,284.9-5.8,406.2-23.1,423.5c-13.5,13.5-65.5,23.1-115.5,23.1H5847V-297c0,1362.9-5.8,1792.2-23.1,1809.6c-13.5,13.5-48.1,23.1-77,23.1H5693v361.9c0,390.8-3.9,408.1-100.1,408.1H5539v207.9c0,231-9.6,254.1-109.7,254.1c-65.5,0-71.2,11.6-111.7,206c-7.7,34.6-28.9,75.1-46.2,86.6c-48.1,32.7-73.2,171.3-90.5,465.9c-13.5,236.8-15.4,250.3-69.3,309.9l-53.9,63.5l-19.3,458.2c-9.6,254.1-19.2,506.3-19.2,562.1c0,53.9-7.7,100.1-19.2,100.1C4990.4,5020,4980.8,4979.6,4980.8,4929.5z M5032.7,3447.2c11.5-157.9,28.9-304.2,34.6-327.3c13.5-40.4,7.7-44.3-67.4-44.3c-75.1,0-80.9,3.9-67.4,44.3c5.8,23.1,21.2,169.4,32.7,327.3c11.5,155.9,26.9,283,34.6,283C5005.8,3730.2,5021.2,3603.2,5032.7,3447.2z M5188.7,2844.7l19.2-77h-211.8c-186.7,0-209.8,3.9-200.2,30.8c5.8,17.3,17.3,52,23.1,77c11.6,44.3,19.2,46.2,181,46.2h169.4L5188.7,2844.7z M5385,2459.7v-154h-92.4c-50.1,0-102-9.6-115.5-23.1c-17.3-17.3-23.1-531.3-23.1-2194.6v-2171.5h-154h-154V88c0,1663.3-5.8,2177.2-23.1,2194.6c-13.5,13.5-65.5,23.1-115.5,23.1H4615v154v154h385h385V2459.7z M4692,1843.7v-308h-115.5H4461v308v308h115.5H4692V1843.7z M5539,1843.7v-308h-115.5H5308v308v308h115.5H5539V1843.7z M4692-1351.9c0-2720.1,0-2733.6-38.5-2733.6c-38.5,0-38.5,13.5-38.5,708.4c0,525.5-5.8,714.2-23.1,731.5c-13.5,13.5-77,23.1-154,23.1H4307v2002.1v2002.1h192.5H4692V-1351.9z M5693-620.4v-2002.1h-130.9c-77,0-140.5-9.6-154-23.1c-17.3-17.3-23.1-206-23.1-731.5c0-694.9,0-708.4-38.5-708.4c-38.5,0-38.5,13.5-38.5,2733.6v2733.6h192.5H5693V-620.4z M4153-2430c0-179-1.9-192.5-38.5-192.5c-36.6,0-38.5,13.5-38.5,192.5s1.9,192.5,38.5,192.5C4151-2237.5,4153-2251,4153-2430z M5154-3161.5v-924h-154h-154v924v924h154h154V-3161.5z M5924-2430c0-179-1.9-192.5-38.5-192.5c-36.6,0-38.5,13.5-38.5,192.5s1.9,192.5,38.5,192.5C5922.1-2237.5,5924-2251,5924-2430z M4461-3431v-654.5h-192.5H4076v654.5v654.5h192.5H4461V-3431z M5924-3431v-654.5h-192.5H5539v654.5v654.5h192.5H5924V-3431z M3922-3585c0-487-1.9-500.5-38.5-500.5c-36.6,0-38.5,13.5-38.5,500.5c0,487,1.9,500.5,38.5,500.5C3920-3084.5,3922-3098,3922-3585z M6155-3585c0-487-1.9-500.5-38.5-500.5s-38.5,13.5-38.5,500.5c0,487,1.9,500.5,38.5,500.5S6155-3098,6155-3585z M6463-4432v-192.5H5000H3537v192.5v192.5h1463h1463V-4432z"/></g></g>
</svg>