<svg height="480pt" viewBox="0 0 480 480" width="480pt" xmlns="http://www.w3.org/2000/svg"><path d="m264 144h-48l-24-24v-48l24-24h48l24 24v48zm0 0" fill="#eaeae8"/><path d="m304 176h160v64h-160zm0 0" fill="#a8eadc"/><path d="m176 240h-160v-64h160zm0 0" fill="#a8eadc"/><path d="m312 312h64v64h-64zm0 0" fill="#99d6c9"/><path d="m376 304h96v80h-96zm0 0" fill="#a8eadc"/><path d="m168 376h-64v-64h64zm0 0" fill="#99d6c9"/><path d="m8 304h96v80h-96zm0 0" fill="#a8eadc"/><path d="m272 200h192v16h-192zm0 0" fill="#277baa"/><path d="m16 200h192v16h-192zm0 0" fill="#277baa"/><path d="m176 168h-160c-4.417969 0-8 3.582031-8 8v64c0 4.417969 3.582031 8 8 8h160c4.417969 0 8-3.582031 8-8v-64c0-4.417969-3.582031-8-8-8zm-104 32h-16v-16h16zm16-16h16v16h-16zm-16 32v16h-16v-16zm16 0h16v16h-16zm32 0h16v16h-16zm0-16v-16h16v16zm-80-16v16h-16v-16zm-16 32h16v16h-16zm144 16h-16v-16h16zm-16-32v-16h16v16zm0 0" fill="#6fbbc6"/><path d="m280 336h192v16h-192zm0 0" fill="#277baa"/><path d="m8 336h192v16h-192zm0 0" fill="#277baa"/><path d="m168 304h-56c0-4.417969-3.582031-8-8-8h-96c-4.417969 0-8 3.582031-8 8v80c0 4.417969 3.582031 8 8 8h96c4.417969 0 8-3.582031 8-8h56c4.417969 0 8-3.582031 8-8v-64c0-4.417969-3.582031-8-8-8zm-8 32h-16v-16h16zm-32-16v16h-16v-16zm-32 16h-16v-24h16zm-48 0v-24h16v24zm16 16v24h-16v-24zm-32-40v24h-16v-24zm-16 40h16v24h-16zm64 24v-24h16v24zm32-24h16v16h-16zm32 16v-16h16v16zm0 0" fill="#6fbbc6"/><path d="m464 168h-160c-4.417969 0-8 3.582031-8 8v64c0 4.417969 3.582031 8 8 8h160c4.417969 0 8-3.582031 8-8v-64c0-4.417969-3.582031-8-8-8zm-104 32h-16v-16h16zm16-16h16v16h-16zm-16 32v16h-16v-16zm16 0h16v16h-16zm32 0h16v16h-16zm0-16v-16h16v16zm-80-16v16h-16v-16zm-16 32h16v16h-16zm144 16h-16v-16h16zm-16-32v-16h16v16zm0 0" fill="#6fbbc6"/><path d="m304 312v64c0 4.417969 3.582031 8 8 8h56c0 4.417969 3.582031 8 8 8h96c4.417969 0 8-3.582031 8-8v-80c0-4.417969-3.582031-8-8-8h-96c-4.417969 0-8 3.582031-8 8h-56c-4.417969 0-8 3.582031-8 8zm16 8h16v16h-16zm48 0v16h-16v-16zm16-8h16v24h-16zm32 24v-24h16v24zm16 16v24h-16v-24zm32-40v24h-16v-24zm0 64h-16v-24h16zm-80 0v-24h16v24zm-16-8h-16v-16h16zm-48 0v-16h16v16zm0 0" fill="#6fbbc6"/><path d="m168 304h-56v16h16v16h-16v16h16v16h-16v16h56c4.417969 0 8-3.582031 8-8v-64c0-4.417969-3.582031-8-8-8zm-8 64h-16v-16h16zm0-32h-16v-16h16zm0 0" fill="#69b0bb"/><path d="m304 312v64c0 4.417969 3.582031 8 8 8h56v-16h-16v-16h16v-16h-16v-16h16v-16h-56c-4.417969 0-8 3.582031-8 8zm16 40h16v16h-16zm0-32h16v16h-16zm0 0" fill="#69b0bb"/><path d="m256 96c0 8.835938-7.164062 16-16 16s-16-7.164062-16-16 7.164062-16 16-16 16 7.164062 16 16zm0 0" fill="#c3c3c3"/><path d="m264 48h-48l5.921875-23.6875c1.320313-5.277344 4.878906-9.710938 9.742187-12.144531 5.246094-2.625 11.425782-2.625 16.671876 0 4.863281 2.433593 8.421874 6.867187 9.742187 12.144531zm0 0" fill="#4799cf"/><path d="m216 144h48v40h-48zm0 0" fill="#4799cf"/><path d="m216 144h48v16h-48zm0 0" fill="#428dc5"/><path d="m216 176h48v8h-48zm0 0" fill="#428dc5"/><path d="m208 184h64v48h-64zm0 0" fill="#eaeae8"/><path d="m224 232h32v32h-32zm0 0" fill="#4799cf"/><path d="m224 232h32v8h-32zm0 0" fill="#428dc5"/><path d="m224 256h32v8h-32zm0 0" fill="#428dc5"/><path d="m208 264h64v48h-64zm0 0" fill="#eaeae8"/><path d="m208 304h64v8h-64zm0 0" fill="#e4e4e2"/><path d="m200 312h80v64h-80zm0 0" fill="#dbdbdb"/><path d="m224 408h32v32h-32zm0 0" fill="#dbdbdb"/><path d="m224 408h32v8h-32zm0 0" fill="#cbcbcb"/><path d="m216 376h48v32h-48zm0 0" fill="#4799cf"/><path d="m216 376h48v8h-48zm0 0" fill="#428dc5"/><path d="m224 336h32v16h-32zm0 0" fill="#c3c3c3"/><path d="m232 208h16v24h-16zm0 0" fill="#cbcbcb"/><path d="m232 264h16v48h-16zm0 0" fill="#cbcbcb"/><path d="m232 304h16v8h-16zm0 0" fill="#c3c3c3"/><path d="m216 128h16v16h-16zm0 0" fill="#cbcbcb"/><path d="m248 128h16v16h-16zm0 0" fill="#cbcbcb"/><path d="m440 0h16v16h-16zm0 0" fill="#fbedbf"/><path d="m416 24h16v16h-16zm0 0" fill="#fbedbf"/><path d="m464 24h16v16h-16zm0 0" fill="#fbd699"/><path d="m440 48h16v16h-16zm0 0" fill="#fbedbf"/><path d="m384 424h16v16h-16zm0 0" fill="#fbedbf"/><path d="m368 440h16v16h-16zm0 0" fill="#fbedbf"/><path d="m400 440h16v16h-16zm0 0" fill="#fbd699"/><path d="m384 456h16v16h-16zm0 0" fill="#fbedbf"/><path d="m344 88h16v16h-16zm0 0" fill="#fbedbf"/><path d="m328 104h16v16h-16zm0 0" fill="#fbedbf"/><path d="m360 104h16v16h-16zm0 0" fill="#fbedbf"/><path d="m344 120h16v16h-16zm0 0" fill="#fbd699"/><path d="m96 408h16v16h-16zm0 0" fill="#fbedbf"/><path d="m32 432h16v16h-16zm0 0" fill="#fbedbf"/><path d="m144 440h16v16h-16zm0 0" fill="#fbedbf"/><path d="m72 464h16v16h-16zm0 0" fill="#fbd699"/><g fill="#aae5c8"><path d="m49.40625 149.351562c-37.089844-41.039062-35.46875-103.960937 3.683594-143.039062l11.308594 11.289062c-33.125 33.0625-34.492188 86.300782-3.101563 121.023438zm0 0"/><path d="m73.167969 128c-25.679688-28.414062-24.558594-71.976562 2.550781-99.03125l11.3125 11.3125c-21.089844 21.035156-21.960938 54.921875-1.976562 77.015625zm0 0"/><path d="m96.984375 106.527344c-14.320313-15.734375-13.722656-39.953125 1.359375-54.960938l11.3125 11.3125c-9.070312 8.988282-9.421875 23.535156-.800781 32.953125zm0 0"/><path d="m152 72h16v16h-16zm0 0"/><path d="m120 72h16v16h-16zm0 0"/></g><path d="m192 440h96v32h-96zm0 0" fill="#99d6c9"/><path d="m288 432h-96c-4.417969 0-8 3.582031-8 8v32c0 4.417969 3.582031 8 8 8h96c4.417969 0 8-3.582031 8-8v-32c0-4.417969-3.582031-8-8-8zm-40 16v16h-16v-16zm-48 0h16v16h-16zm80 16h-16v-16h16zm0 0" fill="#69b0bb"/></svg>