<?xml version="1.0" encoding="iso-8859-1"?>
<!-- Generator: Adobe Illustrator 19.0.0, SVG Export Plug-In . SVG Version: 6.00 Build 0)  -->
<svg version="1.1" id="Capa_1" xmlns="http://www.w3.org/2000/svg" xmlns:xlink="http://www.w3.org/1999/xlink" x="0px" y="0px"
	 viewBox="0 0 511.998 511.998" style="enable-background:new 0 0 511.998 511.998;" xml:space="preserve">
<polyline style="fill:#34935B;" points="277.848,278.69 338.866,242.067 370.729,292.132 291.066,360.056 "/>
<polygon style="fill:#76E5A3;" points="195.438,80.911 209.597,208.347 176.221,232.621 172.176,108.219 160.494,98.155 
	157.51,80.911 "/>
<polygon style="fill:#51CE84;" points="308.532,260.272 341.908,504.413 176.545,504.413 197.703,277.102 176.221,232.621 
	209.597,208.347 235.592,214.811 286.57,185.206 296.395,229.93 "/>
<path style="fill:#BBF9D4;" d="M259.757,214.414L259.757,214.414L259.757,214.414c-16.793-5.773-28.068-21.571-28.068-39.329l0,0
	c0-15.096,12.238-27.333,27.333-27.333h1.47c15.096,0,27.333,12.238,27.333,27.333l0,0
	C287.825,192.843,276.55,208.642,259.757,214.414z"/>
<rect x="148.411" y="53.603" style="fill:#51CE84;" width="59.167" height="27.308"/>
<g>
	<path style="fill:#76E5A3;" d="M192.914,22.757L165.607,7.585v20.734c0,7.541,6.113,13.654,13.654,13.654l0,0
		c7.541,0,13.654-6.113,13.654-13.654V22.757z"/>
	<polygon style="fill:#76E5A3;" points="369.602,325.669 351.485,340.259 337.512,316.628 350.572,302.038 	"/>
</g>
<g>
	<path style="fill:#44B773;" d="M246.566,448.436l-13.178,55.981l-0.314,1.335l-47.647-1.335l-8.86-0.253l20.42-219.301l0.718-7.757
		l-6.867-14.21l-14.615-30.271l19.075-13.876l2.063,30.807l13.452,7.039l8.779,63.728l5.158,8.162l-30.069,82.52
		c-2.083,5.714-0.101,12.117,4.845,15.656l20.066,14.362l-9.436,28.987L246.566,448.436z"/>
	<path style="fill:#44B773;" d="M189.078,228.63l-12.855,3.995l-3.773-115.926c-0.172-5.401-2.609-10.488-6.706-14.018
		c-1.699-1.456-3.115-3.196-4.207-5.118c-1.092-1.922-1.841-4.025-2.225-6.24l-1.8-10.407l14.048-5.108l12.632,25.72L189.078,228.63
		z"/>
</g>
<path d="M215.371,143.598l13.648,13.648c-3.118,5.225-4.916,11.326-4.916,17.84c0,20.991,13.337,39.678,33.188,46.502
	c0.799,0.275,1.632,0.412,2.466,0.412s1.667-0.138,2.466-0.412c8.499-2.922,15.798-8.022,21.374-14.544l1.205,5.488
	c0.778,3.544,3.916,5.961,7.401,5.961c0.538,0,1.086-0.058,1.633-0.178c4.092-0.898,6.681-4.943,5.783-9.035l-5.274-24.036
	c0.18-0.852,0.342-1.708,0.476-2.572h13.913c4.189,0,7.585-3.396,7.585-7.585c0-4.189-3.396-7.585-7.585-7.585h-14.163
	c-0.816-3.667-2.206-7.119-4.077-10.255l13.648-13.648c2.962-2.962,2.962-7.764,0-10.727c-2.962-2.962-7.766-2.962-10.727,0
	l-13.328,13.328c-3.785-2.576-8.099-4.426-12.745-5.353v-25.549c0-4.189-3.396-7.585-7.585-7.585c-4.189,0-7.585,3.396-7.585,7.585
	v25.548c-4.644,0.927-8.96,2.777-12.745,5.353l-13.328-13.328c-2.962-2.962-7.766-2.962-10.727,0
	C212.409,135.834,212.409,140.636,215.371,143.598z M259.757,206.286c-9.082-3.932-15.867-11.588-18.831-20.778
	c0.983-2.237,2.386-4.303,4.139-6.055c3.722-3.728,8.678-5.782,13.955-5.782h1.474c7.962,0,14.988,4.679,18.096,11.833
	C275.625,194.695,268.84,202.352,259.757,206.286z M259.021,155.338h1.471c5.65,0,10.739,2.398,14.342,6.214
	c-4.402-1.97-9.263-3.052-14.341-3.052h-1.474c-5.04,0-9.911,1.068-14.366,3.081C248.258,157.748,253.357,155.338,259.021,155.338z"
	/>
<path d="M148.413,88.498h2.715l1.888,10.948c0.299,1.735,1.192,3.31,2.526,4.459l9.166,7.891l3.013,92.651
	c0.137,4.187,3.681,7.474,7.828,7.335c4.187-0.137,7.471-3.641,7.335-7.828l-3.069-94.366l8.592-21.09h0.247l12.923,116.307
	l-29.812,21.681c-2.967,2.157-3.965,6.129-2.37,9.432l20.557,42.578l-9.035,97.094c-0.388,4.171,2.678,7.868,6.85,8.256
	c0.239,0.022,0.476,0.033,0.712,0.033c3.873,0,7.178-2.951,7.544-6.884l9.149-98.328l11.168-33.536
	c1.324-3.975-0.825-8.27-4.8-9.593c-3.975-1.324-8.269,0.825-9.593,4.8l-5.539,16.634l-10.594-21.945l23.523-17.108l20.065,16.376
	c1.409,1.149,3.105,1.709,4.792,1.709c2.2,0,4.382-0.953,5.881-2.789c2.649-3.246,2.165-8.024-1.08-10.673l-22.194-18.113
	L203.918,88.498h3.661c4.189,0,7.585-3.396,7.585-7.585V53.604c0-4.189-3.396-7.585-7.585-7.585h-16.605
	c5.734-3.807,9.525-10.316,9.525-17.7v-5.562c0-2.755-1.494-5.293-3.901-6.631L169.291,0.954c-2.35-1.305-5.215-1.269-7.531,0.093
	c-2.317,1.363-3.739,3.85-3.739,6.538v20.734c0,7.383,3.792,13.893,9.525,17.7h-19.135c-4.189,0-7.585,3.396-7.585,7.585v27.308
	C140.827,85.101,144.224,88.498,148.413,88.498z M173.192,20.477l12.137,6.743v1.098c0,3.346-2.722,6.068-6.068,6.068
	s-6.068-2.723-6.068-6.068V20.477z M169.135,95.589l-1.633-1.406l-0.981-5.686h5.503L169.135,95.589z M155.998,61.19h43.996v12.137
	h-4.551h-12.208c-0.013,0-0.027,0-0.04,0h-25.679h-1.517V61.19z"/>
<path d="M329.827,256.339l6.606-3.966l27.895,43.832c1.445,2.272,3.899,3.514,6.406,3.514c1.393,0,2.803-0.383,4.066-1.187
	c3.535-2.249,4.576-6.938,2.326-10.472l-31.862-50.065c-2.209-3.469-6.778-4.547-10.303-2.431l-12.943,7.769
	c-3.591,2.156-4.757,6.816-2.6,10.407C321.575,257.33,326.235,258.495,329.827,256.339z"/>
<path d="M291.662,269.131c-3.855-1.641-8.31,0.154-9.95,4.009l-83.946,197.222c-1.29,3.03-0.476,6.548,2.013,8.704
	c1.414,1.225,3.185,1.853,4.968,1.852c1.355,0,2.718-0.363,3.934-1.1L281,435.932c3.581-2.173,4.722-6.839,2.55-10.42
	c-2.172-3.581-6.838-4.723-10.42-2.55l-52.177,31.663l74.719-175.544C297.311,275.227,295.516,270.771,291.662,269.131z"/>
<path d="M377.305,496.829h-28.781l-32.477-237.581c-0.084-0.614-0.243-1.215-0.472-1.79l-12.136-30.34
	c-0.994-2.486-3.224-4.263-5.87-4.678c-1.378-0.215-2.757-0.037-4.006,0.467c-0.024,0.009-0.049,0.011-0.073,0.021l-55.239,22.913
	c-3.87,1.605-5.705,6.043-4.1,9.913c1.211,2.92,4.034,4.681,7.01,4.681c0.969,0,1.953-0.187,2.904-0.581l27.015-11.206
	l-58.02,70.164c-2.67,3.228-2.217,8.01,1.011,10.679c3.228,2.67,8.01,2.216,10.679-1.011l69.347-83.864l7.043,17.609l18.143,132.728
	l-25.673,15.58c-3.582,2.173-4.723,6.838-2.55,10.42c1.427,2.352,3.928,3.651,6.492,3.651c1.34,0,2.698-0.355,3.927-1.101
	l20.044-12.163l11.687,85.489H184.874l8.733-93.858c0.388-4.171-2.678-7.868-6.85-8.256c-4.17-0.386-7.868,2.678-8.256,6.85
	l-8.864,95.262h-34.944c-4.189,0-7.585,3.396-7.585,7.585c0,4.189,3.396,7.585,7.585,7.585h41.857h165.355h35.4
	c4.189,0,7.585-3.396,7.585-7.585C384.891,500.224,381.494,496.829,377.305,496.829z"/>
<path d="M356.479,297.28c-1.397-1.735-3.484-2.767-5.71-2.825c-2.208-0.052-4.364,0.865-5.85,2.524l-13.06,14.59
	c-2.206,2.464-2.561,6.073-0.877,8.92l13.973,23.631c1.121,1.895,3.009,3.21,5.175,3.603c0.45,0.082,0.903,0.121,1.353,0.121
	c1.717,0,3.399-0.584,4.758-1.678l18.117-14.59c3.263-2.628,3.778-7.403,1.15-10.666L356.479,297.28z M353.553,328.855
	l-6.685-11.306l3.398-3.796l8.671,10.767L353.553,328.855z"/>
<g>
</g>
<g>
</g>
<g>
</g>
<g>
</g>
<g>
</g>
<g>
</g>
<g>
</g>
<g>
</g>
<g>
</g>
<g>
</g>
<g>
</g>
<g>
</g>
<g>
</g>
<g>
</g>
<g>
</g>
</svg>
