<svg width="186.93335" height="644.73334" xmlns="http://www.w3.org/2000/svg">
 <metadata id="metadata8">image/svg+xml</metadata>
 <defs>
  <clipPath id="clipPath20" clipPathUnits="userSpaceOnUse">
   <path id="path18" d="m3138.89,2091.22l0,1026.49c33.26,22.17 33.26,77.63 33.26,77.63l0,105.46c0,94.35 -5.51,266.34 -144.24,543.76c-138.75,277.42 -291.2,437.31 -291.2,437.31l0,165.98l-538.37,0l0,-165.98c0,0 -152.45,-159.89 -291.2,-437.31c-138.72,-277.42 -144.25,-449.41 -144.25,-543.76l0,-105.46c0,0 0,-55.46 33.27,-77.63l0,-1026.49c0,0 33.19,-22.29 33.19,-55.58c0,-33.29 -44.37,-55.46 -44.37,-55.46c0,0 0,-188.63 0,-382.82c0,-194.23 0,-732.391 0,-732.391c0,0 0,-299.649 0,-471.629c0,-172.039 49.95,-388.42984 266.38,-388.42984c0,0 182.73,-18.83596 294.03,50.07814c135.07,83.6637 238.93,3.8672 238.93,3.8672l5.33,-3.8672c105.4,-77.6836 294.05,-50.07814 294.05,-50.07814c216.43,0 266.36,216.39084 266.36,388.42984c0,171.98 0,471.629 0,471.629c0,0 0,538.161 0,732.391c0,194.19 0,382.82 0,382.82c0,0 -44.36,22.17 -44.36,55.46c0,33.29 33.19,55.58 33.19,55.58"/>
  </clipPath>
  <clipPath id="clipPath40" clipPathUnits="userSpaceOnUse">
   <path id="path38" d="m2406.79,4281.11l-31.05,-1086.48l-480.97,0c0,0 -5.2,527.72 263.86,889.83l139.69,191.45l108.47,5.2"/>
  </clipPath>
  <clipPath id="clipPath58" clipPathUnits="userSpaceOnUse">
   <path id="path56" d="m1796.16,3117.71c-33.27,22.17 -33.27,77.63 -33.27,77.63l1409.26,0c0,0 0,-55.46 -33.26,-77.63l-1342.73,0"/>
  </clipPath>
  <clipPath id="clipPath78" clipPathUnits="userSpaceOnUse">
   <path id="path76" d="m3150.06,1980.18c0,0 -44.36,22.17 -44.36,55.46c0,33.29 33.19,55.58 33.19,55.58l-1342.73,0c0,0 33.19,-22.29 33.19,-55.58c0,-33.29 -44.37,-55.46 -44.37,-55.46l1365.08,0"/>
  </clipPath>
  <clipPath id="clipPath102" clipPathUnits="userSpaceOnUse">
   <path id="path100" d="m1894.77,2090.92l480.969,0l0,1025.55l-480.969,0l0,-1025.55z"/>
  </clipPath>
  <clipPath id="clipPath120" clipPathUnits="userSpaceOnUse">
   <path id="path118" d="m2375.74,121.602c0,0 -60.77,-91.9731 -240.01,-91.9731c-206.02,0 -240.96,91.9731 -240.96,91.9731l0,1857.718l480.97,0l0,-1857.718"/>
  </clipPath>
  <clipPath id="clipPath144" clipPathUnits="userSpaceOnUse">
   <path id="path142" d="m2736.68,4447.85l-538.37,0l0,-165.98c0,0 -82.34,-86.54 -181,-242.34l900.38,0c-98.66,155.8 -181.01,242.34 -181.01,242.34l0,165.98"/>
  </clipPath>
  <clipPath id="clipPath162" clipPathUnits="userSpaceOnUse">
   <path id="path160" d="m2298.3,4275.91l-139.7,-191.45c-10.91,-14.67 -21.22,-29.72 -31.26,-44.93l272.52,0l6.9,241.58l-108.46,-5.2"/>
  </clipPath>
  <clipPath id="clipPath180" clipPathUnits="userSpaceOnUse">
   <path id="path178" d="m0,0l4904,0l0,4835l-4904,0l0,-4835z"/>
  </clipPath>
  <clipPath id="clipPath186" clipPathUnits="userSpaceOnUse">
   <path id="path184" d="m2138.52,4448.22l0,276.72c0,60.79 45.5,110.54 101.18,110.54l451.14,0c55.7,0 101.23,-49.75 101.23,-110.54l0,-276.72l-653.55,0"/>
  </clipPath>
  <clipPath id="clipPath208" clipPathUnits="userSpaceOnUse">
   <path id="path206" d="m2198.45,4281.87l538.238,0l0,19.5156l-538.238,0l0,-19.5156z"/>
  </clipPath>
  <clipPath id="clipPath226" clipPathUnits="userSpaceOnUse">
   <path id="path224" d="m2198.45,4326.53l538.238,0l0,19.5195l-538.238,0l0,-19.5195z"/>
  </clipPath>
  <clipPath id="clipPath244" clipPathUnits="userSpaceOnUse">
   <path id="path242" d="m2198.45,4374.84l538.238,0l0,19.543l-538.238,0l0,-19.543z"/>
  </clipPath>
  <clipPath id="clipPath262" clipPathUnits="userSpaceOnUse">
   <path id="path260" d="m2096.94,4408.65l729.973,0l0,19.5156l-729.973,0l0,-19.5156z"/>
  </clipPath>
  <clipPath id="clipPath280" clipPathUnits="userSpaceOnUse">
   <path id="path278" d="m2901.29,3956.35c0,0 86.64,-306.65 89.46,-732.64c0,0 37.46,0.65 76.17,-7.5c38.7,-8.1 37.54,39.43 37.54,39.43c0,0 -17.92,437.09 -203.17,700.71"/>
  </clipPath>
  <clipPath id="clipPath304" clipPathUnits="userSpaceOnUse">
   <path id="path302" d="m1375.99,2091.22l0,1026.49c33.27,22.17 33.27,77.63 33.27,77.63l0,105.46c0,94.35 -5.53,266.34 -144.24,543.76c-138.75,277.42 -291.204,437.31 -291.204,437.31l0,165.98l-538.378,0l0,-165.98c0,0 -152.446,-159.89 -291.196,-437.31c-138.71856,-277.42 -144.242,-449.41 -144.242,-543.76l0,-105.46c0,0 0,-55.46 33.2656,-77.63l0,-1026.49c0,0 33.1836,-22.29 33.1836,-55.58c0,-33.29 -44.3594,-55.46 -44.3594,-55.46c0,0 0,-188.63 0,-382.82c0,-194.23 0,-732.391 0,-732.391c0,0 0,-299.649 0,-471.629c0,-172.039 49.9375,-388.42984 266.3712,-388.42984c0,0 182.734,-18.83596 294.039,50.07814c135.066,83.6637 238.926,3.8672 238.926,3.8672l5.332,-3.8672c105.406,-77.6836 294.042,-50.07814 294.042,-50.07814c216.43,0 266.37,216.39084 266.37,388.42984c0,171.98 0,471.629 0,471.629c0,0 0,538.161 0,732.391c0,194.19 0,382.82 0,382.82c0,0 -44.36,22.17 -44.36,55.46c0,33.29 33.18,55.58 33.18,55.58"/>
  </clipPath>
  <clipPath id="clipPath322" clipPathUnits="userSpaceOnUse">
   <path id="path320" d="m0,0l4904,0l0,4835l-4904,0l0,-4835z"/>
  </clipPath>
  <clipPath id="clipPath328" clipPathUnits="userSpaceOnUse">
   <path id="path326" d="m375.648,4448.22l0,276.72c0,60.79 45.5,110.54 101.176,110.54l451.141,0c55.707,0 101.235,-49.75 101.235,-110.54l0,-276.72l-653.552,0"/>
  </clipPath>
  <clipPath id="clipPath350" clipPathUnits="userSpaceOnUse">
   <path id="path348" d="m33.2656,3117.71c-33.2656,22.17 -33.2656,77.63 -33.2656,77.63l1409.26,0c0,0 0,-55.46 -33.27,-77.63l-1342.7244,0"/>
  </clipPath>
  <clipPath id="clipPath372" clipPathUnits="userSpaceOnUse">
   <path id="path370" d="m1387.17,1980.18c0,0 -44.36,22.17 -44.36,55.46c0,33.29 33.18,55.58 33.18,55.58l-1342.7244,0c0,0 33.1836,-22.29 33.1836,-55.58c0,-33.29 -44.3594,-55.46 -44.3594,-55.46l1365.0802,0"/>
  </clipPath>
  <clipPath id="clipPath398" clipPathUnits="userSpaceOnUse">
   <path id="path396" d="m435.574,4281.87l538.242,0l0,19.5156l-538.242,0l0,-19.5156z"/>
  </clipPath>
  <clipPath id="clipPath416" clipPathUnits="userSpaceOnUse">
   <path id="path414" d="m435.574,4326.53l538.242,0l0,19.5195l-538.242,0l0,-19.5195z"/>
  </clipPath>
  <clipPath id="clipPath434" clipPathUnits="userSpaceOnUse">
   <path id="path432" d="m435.574,4374.84l538.242,0l0,19.543l-538.242,0l0,-19.543z"/>
  </clipPath>
  <clipPath id="clipPath452" clipPathUnits="userSpaceOnUse">
   <path id="path450" d="m334.07,4408.65l729.961,0l0,19.5156l-729.961,0l0,-19.5156z"/>
  </clipPath>
  <clipPath id="clipPath470" clipPathUnits="userSpaceOnUse">
   <path id="path468" d="m643.887,4281.11l-31.047,-1086.48l-480.965,0c0,0 -5.195,527.72 263.855,889.83l139.7,191.45l108.457,5.2"/>
  </clipPath>
  <clipPath id="clipPath488" clipPathUnits="userSpaceOnUse">
   <path id="path486" d="m131.875,2090.92l480.965,0l0,1025.55l-480.965,0l0,-1025.55z"/>
  </clipPath>
  <clipPath id="clipPath506" clipPathUnits="userSpaceOnUse">
   <path id="path504" d="m612.84,121.602c0,0 -60.766,-91.9731 -240.008,-91.9731c-206.012,0 -240.957,91.9731 -240.957,91.9731l0,1857.718l480.965,0l0,-1857.718"/>
  </clipPath>
  <clipPath id="clipPath530" clipPathUnits="userSpaceOnUse">
   <path id="path528" d="m1150.82,3956.35c0,0 86.64,-306.65 89.45,-732.64c0,0 37.46,0.65 76.17,-7.5c38.71,-8.1 37.54,39.43 37.54,39.43c0,0 -17.92,437.09 -203.16,700.71"/>
  </clipPath>
  <clipPath id="clipPath552" clipPathUnits="userSpaceOnUse">
   <path id="path550" d="m0,0l4904,0l0,4835l-4904,0l0,-4835z"/>
  </clipPath>
  <clipPath id="clipPath558" clipPathUnits="userSpaceOnUse">
   <path id="path556" d="m4871.23,2091.22l0,1026.49c33.26,22.17 33.26,77.63 33.26,77.63l0,105.46c0,94.35 -5.52,266.34 -144.24,543.76c-138.75,277.42 -291.19,437.31 -291.19,437.31l0,165.98l-538.38,0l0,-165.98c0,0 -152.45,-159.89 -291.2,-437.31c-138.72,-277.42 -144.24,-449.41 -144.24,-543.76l0,-105.46c0,0 0,-55.46 33.26,-77.63l0,-1026.49c0,0 33.18,-22.29 33.18,-55.58c0,-33.29 -44.36,-55.46 -44.36,-55.46c0,0 0,-188.63 0,-382.82c0,-194.23 0,-732.391 0,-732.391c0,0 0,-299.649 0,-471.629c0,-172.039 49.94,-388.42984 266.38,-388.42984c0,0 182.73,-18.83596 294.03,50.07814c135.07,83.6637 238.93,3.8672 238.93,3.8672l5.34,-3.8672c105.4,-77.6836 294.03,-50.07814 294.03,-50.07814c216.43,0 266.38,216.39084 266.38,388.42984c0,171.98 0,471.629 0,471.629c0,0 0,538.161 0,732.391c0,194.19 0,382.82 0,382.82c0,0 -44.37,22.17 -44.37,55.46c0,33.29 33.19,55.58 33.19,55.58"/>
  </clipPath>
  <clipPath id="clipPath578" clipPathUnits="userSpaceOnUse">
   <path id="path576" d="m4139.13,4281.11l-31.05,-1086.48l-480.97,0c0,0 -5.2,527.72 263.85,889.83l139.7,191.45l108.47,5.2"/>
  </clipPath>
  <clipPath id="clipPath596" clipPathUnits="userSpaceOnUse">
   <path id="path594" d="m0,0l4904,0l0,4835l-4904,0l0,-4835z"/>
  </clipPath>
  <clipPath id="clipPath602" clipPathUnits="userSpaceOnUse">
   <path id="path600" d="m3528.5,3117.71c-33.26,22.17 -33.26,77.63 -33.26,77.63l1409.25,0c0,0 0,-55.46 -33.26,-77.63l-1342.73,0"/>
  </clipPath>
  <clipPath id="clipPath622" clipPathUnits="userSpaceOnUse">
   <path id="path620" d="m4882.41,1980.18c0,0 -44.37,22.17 -44.37,55.46c0,33.29 33.19,55.58 33.19,55.58l-1342.73,0c0,0 33.18,-22.29 33.18,-55.58c0,-33.29 -44.36,-55.46 -44.36,-55.46l1365.09,0"/>
  </clipPath>
  <clipPath id="clipPath646" clipPathUnits="userSpaceOnUse">
   <path id="path644" d="m3627.11,2090.92l480.977,0l0,1025.55l-480.977,0l0,-1025.55z"/>
  </clipPath>
  <clipPath id="clipPath664" clipPathUnits="userSpaceOnUse">
   <path id="path662" d="m4108.08,121.602c0,0 -60.77,-91.9731 -240.01,-91.9731c-206.02,0 -240.96,91.9731 -240.96,91.9731l0,1857.718l480.97,0l0,-1857.718"/>
  </clipPath>
  <clipPath id="clipPath688" clipPathUnits="userSpaceOnUse">
   <path id="path686" d="m4469.03,4447.85l-538.38,0l0,-165.98c0,0 -82.35,-86.54 -181.01,-242.34l900.38,0c-98.66,155.8 -180.99,242.34 -180.99,242.34l0,165.98"/>
  </clipPath>
  <clipPath id="clipPath706" clipPathUnits="userSpaceOnUse">
   <path id="path704" d="m4030.64,4275.91l-139.7,-191.45c-10.9,-14.67 -21.22,-29.72 -31.27,-44.93l272.52,0l6.91,241.58l-108.46,-5.2"/>
  </clipPath>
  <clipPath id="clipPath724" clipPathUnits="userSpaceOnUse">
   <path id="path722" d="m0,0l4904,0l0,4835l-4904,0l0,-4835z"/>
  </clipPath>
  <clipPath id="clipPath730" clipPathUnits="userSpaceOnUse">
   <path id="path728" d="m3870.86,4448.22l0,276.72c0,60.79 45.49,110.54 101.18,110.54l451.13,0c55.71,0 101.24,-49.75 101.24,-110.54l0,-276.72l-653.55,0"/>
  </clipPath>
  <clipPath id="clipPath752" clipPathUnits="userSpaceOnUse">
   <path id="path750" d="m3930.79,4281.87l538.242,0l0,19.5156l-538.242,0l0,-19.5156z"/>
  </clipPath>
  <clipPath id="clipPath770" clipPathUnits="userSpaceOnUse">
   <path id="path768" d="m3930.79,4326.53l538.242,0l0,19.5195l-538.242,0l0,-19.5195z"/>
  </clipPath>
  <clipPath id="clipPath788" clipPathUnits="userSpaceOnUse">
   <path id="path786" d="m3930.79,4374.84l538.242,0l0,19.543l-538.242,0l0,-19.543z"/>
  </clipPath>
  <clipPath id="clipPath806" clipPathUnits="userSpaceOnUse">
   <path id="path804" d="m3829.28,4408.65l729.961,0l0,19.5156l-729.961,0l0,-19.5156z"/>
  </clipPath>
  <clipPath id="clipPath824" clipPathUnits="userSpaceOnUse">
   <path id="path822" d="m4633.63,3956.35c0,0 86.64,-306.65 89.45,-732.64c0,0 37.46,0.65 76.17,-7.5c38.71,-8.1 37.54,39.43 37.54,39.43c0,0 -17.91,437.09 -203.16,700.71"/>
  </clipPath>
  <clipPath id="clipPath848" clipPathUnits="userSpaceOnUse">
   <path id="path846" d="m3527.37,2117.77l1341.09,0l0,972.918l-1341.09,0l0,-972.918z"/>
  </clipPath>
  <linearGradient id="linearGradient30" spreadMethod="pad" y2="1.0045" x2="1.00001" y1="1.0045" x1="0.00562">
   <stop stop-color="#cceffc" id="stop22" offset="0"/>
   <stop stop-color="#f0fafe" id="stop24" offset="0.29213"/>
   <stop stop-color="#f0fafe" id="stop26" offset="0.63743"/>
   <stop stop-color="#57c9f4" id="stop28" offset="1"/>
  </linearGradient>
  <linearGradient id="linearGradient48" spreadMethod="pad" y2="1.01841" x2="0.99998" y1="1.01841" x1="0">
   <stop stop-color="#f0fafe" id="stop42" offset="0"/>
   <stop stop-color="#f0fafe" id="stop44" offset="0.48779"/>
   <stop stop-color="#ebf9fe" id="stop46" offset="1"/>
  </linearGradient>
  <linearGradient id="linearGradient68" spreadMethod="pad" y2="-1.132" x2="1.01419" y1="1.08679" x1="1.01419">
   <stop stop-color="#cceffc" id="stop60" offset="0"/>
   <stop stop-color="#e0f5fd" id="stop62" offset="0.29213"/>
   <stop stop-color="#e0f5fd" id="stop64" offset="0.63743"/>
   <stop stop-color="#57c9f4" id="stop66" offset="1"/>
  </linearGradient>
  <linearGradient id="linearGradient88" spreadMethod="pad" y2="-0.15232" x2="1.01465" y1="1.27715" x1="1.01465">
   <stop stop-color="#cceffc" id="stop80" offset="0"/>
   <stop stop-color="#d9f3fd" id="stop82" offset="0.29213"/>
   <stop stop-color="#d9f3fd" id="stop84" offset="0.63743"/>
   <stop stop-color="#57c9f4" id="stop86" offset="1"/>
  </linearGradient>
  <linearGradient id="linearGradient110" spreadMethod="pad" y2="1.01949" x2="1" y1="1.01949" x1="0">
   <stop stop-color="#f0fafe" id="stop104" offset="0"/>
   <stop stop-color="#f0fafe" id="stop106" offset="0.48779"/>
   <stop stop-color="#ebf9fe" id="stop108" offset="1"/>
  </linearGradient>
  <linearGradient id="linearGradient128" spreadMethod="pad" y2="1.01026" x2="1" y1="1.01026" x1="0">
   <stop stop-color="#f0fafe" id="stop122" offset="0"/>
   <stop stop-color="#f0fafe" id="stop124" offset="0.48779"/>
   <stop stop-color="#ebf9fe" id="stop126" offset="1"/>
  </linearGradient>
  <linearGradient id="linearGradient152" spreadMethod="pad" y2="1.04898" x2="0.92054" y1="1.04898" x1="0.07398">
   <stop stop-color="#f4f4f4" id="stop146" offset="0"/>
   <stop stop-color="#f4f4f4" id="stop148" offset="0.48779"/>
   <stop stop-color="#d3d2d2" id="stop150" offset="1"/>
  </linearGradient>
  <linearGradient id="linearGradient170" spreadMethod="pad" y2="1.08279" x2="1.02256" y1="1.08279" x1="0.37925">
   <stop stop-color="#ffffff" id="stop164" offset="0"/>
   <stop stop-color="#ffffff" id="stop166" offset="0.69419"/>
   <stop stop-color="#e9e9e9" id="stop168" offset="1"/>
  </linearGradient>
  <linearGradient id="linearGradient198" spreadMethod="pad" y2="1.05292" x2="1.06792" y1="1.05292" x1="0.01835">
   <stop stop-color="#b2b1b1" id="stop188" offset="0"/>
   <stop stop-color="#f4f4f4" id="stop190" offset="0.08931"/>
   <stop stop-color="#f4f4f4" id="stop192" offset="0.23595"/>
   <stop stop-color="#b2b1b1" id="stop194" offset="0.77515"/>
   <stop stop-color="#b2b1b1" id="stop196" offset="1"/>
  </linearGradient>
  <linearGradient id="linearGradient216" spreadMethod="pad" y2="0.22888" x2="1.03714" y1="1.01041" x1="1.03714">
   <stop stop-color="#d3d2d2" id="stop210" offset="0"/>
   <stop stop-color="#ffffff" id="stop212" offset="0.64981"/>
   <stop stop-color="#ffffff" id="stop214" offset="1"/>
  </linearGradient>
  <linearGradient id="linearGradient234" spreadMethod="pad" y2="0.22934" x2="1.03714" y1="1.01071" x1="1.03714">
   <stop stop-color="#d3d2d2" id="stop228" offset="0"/>
   <stop stop-color="#ffffff" id="stop230" offset="0.64981"/>
   <stop stop-color="#ffffff" id="stop232" offset="1"/>
  </linearGradient>
  <linearGradient id="linearGradient252" spreadMethod="pad" y2="0.22919" x2="1.03714" y1="1.01059" x1="1.03714">
   <stop stop-color="#d3d2d2" id="stop246" offset="0"/>
   <stop stop-color="#ffffff" id="stop248" offset="0.64981"/>
   <stop stop-color="#ffffff" id="stop250" offset="1"/>
  </linearGradient>
  <linearGradient id="linearGradient270" spreadMethod="pad" y2="0.22953" x2="1.02739" y1="1.01106" x1="1.02739">
   <stop stop-color="#d3d2d2" id="stop264" offset="0"/>
   <stop stop-color="#ffffff" id="stop266" offset="0.64981"/>
   <stop stop-color="#ffffff" id="stop268" offset="1"/>
  </linearGradient>
  <linearGradient id="linearGradient290" spreadMethod="pad" y2="0.08401" x2="1.12949" y1="0.68837" x1="1.001">
   <stop stop-color="#cceffc" id="stop282" offset="0"/>
   <stop stop-color="#f0fafe" id="stop284" offset="0.29213"/>
   <stop stop-color="#f0fafe" id="stop286" offset="0.63743"/>
   <stop stop-color="#80d6f7" id="stop288" offset="1"/>
  </linearGradient>
  <linearGradient id="linearGradient312" spreadMethod="pad" y2="1.0045" x2="1" y1="1.0045" x1="0">
   <stop stop-color="#f4f4f4" id="stop306" offset="0"/>
   <stop stop-color="#f4f4f4" id="stop308" offset="0.48779"/>
   <stop stop-color="#d3d2d2" id="stop310" offset="1"/>
  </linearGradient>
  <linearGradient id="linearGradient340" spreadMethod="pad" y2="1.05292" x2="1.06813" y1="1.05292" x1="0.01855">
   <stop stop-color="#b2b1b1" id="stop330" offset="0"/>
   <stop stop-color="#f4f4f4" id="stop332" offset="0.08931"/>
   <stop stop-color="#f4f4f4" id="stop334" offset="0.23595"/>
   <stop stop-color="#b2b1b1" id="stop336" offset="0.77515"/>
   <stop stop-color="#b2b1b1" id="stop338" offset="1"/>
  </linearGradient>
  <linearGradient id="linearGradient362" spreadMethod="pad" y2="-1.132" x2="1.01419" y1="1.09932" x1="1.01419">
   <stop stop-color="#b2b1b1" id="stop352" offset="0"/>
   <stop stop-color="#f4f4f4" id="stop354" offset="0.33221"/>
   <stop stop-color="#f4f4f4" id="stop356" offset="0.51124"/>
   <stop stop-color="#f4f4f4" id="stop358" offset="0.74965"/>
   <stop stop-color="#b2b1b1" id="stop360" offset="1"/>
  </linearGradient>
  <linearGradient id="linearGradient384" spreadMethod="pad" y2="-0.15232" x2="1.01465" y1="1.28523" x1="1.01465">
   <stop stop-color="#b2b1b1" id="stop374" offset="0"/>
   <stop stop-color="#f4f4f4" id="stop376" offset="0.33221"/>
   <stop stop-color="#f4f4f4" id="stop378" offset="0.51124"/>
   <stop stop-color="#f4f4f4" id="stop380" offset="0.74965"/>
   <stop stop-color="#b2b1b1" id="stop382" offset="1"/>
  </linearGradient>
  <linearGradient id="linearGradient406" spreadMethod="pad" y2="0.22888" x2="1.03716" y1="1.01041" x1="1.03716">
   <stop stop-color="#d3d2d2" id="stop400" offset="0"/>
   <stop stop-color="#ffffff" id="stop402" offset="0.64981"/>
   <stop stop-color="#ffffff" id="stop404" offset="1"/>
  </linearGradient>
  <linearGradient id="linearGradient424" spreadMethod="pad" y2="0.22934" x2="1.03716" y1="1.01071" x1="1.03716">
   <stop stop-color="#d3d2d2" id="stop418" offset="0"/>
   <stop stop-color="#ffffff" id="stop420" offset="0.64981"/>
   <stop stop-color="#ffffff" id="stop422" offset="1"/>
  </linearGradient>
  <linearGradient id="linearGradient442" spreadMethod="pad" y2="0.22919" x2="1.03716" y1="1.01059" x1="1.03716">
   <stop stop-color="#d3d2d2" id="stop436" offset="0"/>
   <stop stop-color="#ffffff" id="stop438" offset="0.64981"/>
   <stop stop-color="#ffffff" id="stop440" offset="1"/>
  </linearGradient>
  <linearGradient id="linearGradient460" spreadMethod="pad" y2="0.22953" x2="1.0274" y1="1.01106" x1="1.0274">
   <stop stop-color="#d3d2d2" id="stop454" offset="0"/>
   <stop stop-color="#ffffff" id="stop456" offset="0.64981"/>
   <stop stop-color="#ffffff" id="stop458" offset="1"/>
  </linearGradient>
  <linearGradient id="linearGradient478" spreadMethod="pad" y2="1.01841" x2="1" y1="1.01841" x1="0.00001">
   <stop stop-color="#ffffff" id="stop472" offset="0"/>
   <stop stop-color="#ffffff" id="stop474" offset="0.69419"/>
   <stop stop-color="#e9e9e9" id="stop476" offset="1"/>
  </linearGradient>
  <linearGradient id="linearGradient496" spreadMethod="pad" y2="1.01949" x2="1" y1="1.01949" x1="0">
   <stop stop-color="#ffffff" id="stop490" offset="0"/>
   <stop stop-color="#ffffff" id="stop492" offset="0.69419"/>
   <stop stop-color="#ebebeb" id="stop494" offset="1"/>
  </linearGradient>
  <linearGradient id="linearGradient514" spreadMethod="pad" y2="1.01026" x2="1" y1="1.01026" x1="0">
   <stop stop-color="#ffffff" id="stop508" offset="0"/>
   <stop stop-color="#ffffff" id="stop510" offset="0.69419"/>
   <stop stop-color="#ebebeb" id="stop512" offset="1"/>
  </linearGradient>
  <linearGradient id="linearGradient538" spreadMethod="pad" y2="0.08401" x2="1.1295" y1="0.51423" x1="1.03803">
   <stop stop-color="#ffffff" id="stop532" offset="0"/>
   <stop stop-color="#ffffff" id="stop534" offset="0.48779"/>
   <stop stop-color="#dcdbdb" id="stop536" offset="1"/>
  </linearGradient>
  <linearGradient id="linearGradient568" spreadMethod="pad" y2="1.00446" x2="1.00035" y1="1.00446" x1="0.00579">
   <stop stop-color="#cceffc" id="stop560" offset="0"/>
   <stop stop-color="#f0fafe" id="stop562" offset="0.29213"/>
   <stop stop-color="#f0fafe" id="stop564" offset="0.63743"/>
   <stop stop-color="#57c9f4" id="stop566" offset="1"/>
  </linearGradient>
  <linearGradient id="linearGradient586" spreadMethod="pad" y2="1.01841" x2="0.99998" y1="1.01841" x1="0">
   <stop stop-color="#f0fafe" id="stop580" offset="0"/>
   <stop stop-color="#f0fafe" id="stop582" offset="0.48779"/>
   <stop stop-color="#ebf9fe" id="stop584" offset="1"/>
  </linearGradient>
  <linearGradient id="linearGradient612" spreadMethod="pad" y2="-1.10335" x2="1.01454" y1="1.07692" x1="1.01454">
   <stop stop-color="#cceffc" id="stop604" offset="0"/>
   <stop stop-color="#e0f5fd" id="stop606" offset="0.29213"/>
   <stop stop-color="#e0f5fd" id="stop608" offset="0.63743"/>
   <stop stop-color="#57c9f4" id="stop610" offset="1"/>
  </linearGradient>
  <linearGradient id="linearGradient632" spreadMethod="pad" y2="-0.15232" x2="1.01465" y1="1.27715" x1="1.01465">
   <stop stop-color="#cceffc" id="stop624" offset="0"/>
   <stop stop-color="#d9f3fd" id="stop626" offset="0.29213"/>
   <stop stop-color="#d9f3fd" id="stop628" offset="0.63743"/>
   <stop stop-color="#57c9f4" id="stop630" offset="1"/>
  </linearGradient>
  <linearGradient id="linearGradient654" spreadMethod="pad" y2="1.01949" x2="0.99998" y1="1.01949" x1="-0.00002">
   <stop stop-color="#f0fafe" id="stop648" offset="0"/>
   <stop stop-color="#f0fafe" id="stop650" offset="0.48779"/>
   <stop stop-color="#ebf9fe" id="stop652" offset="1"/>
  </linearGradient>
  <linearGradient id="linearGradient672" spreadMethod="pad" y2="1.01026" x2="1" y1="1.01026" x1="-0.00002">
   <stop stop-color="#f0fafe" id="stop666" offset="0"/>
   <stop stop-color="#f0fafe" id="stop668" offset="0.48779"/>
   <stop stop-color="#ebf9fe" id="stop670" offset="1"/>
  </linearGradient>
  <linearGradient id="linearGradient696" spreadMethod="pad" y2="1.04898" x2="0.92054" y1="1.04898" x1="0.07398">
   <stop stop-color="#f4f4f4" id="stop690" offset="0"/>
   <stop stop-color="#f4f4f4" id="stop692" offset="0.48779"/>
   <stop stop-color="#d3d2d2" id="stop694" offset="1"/>
  </linearGradient>
  <linearGradient id="linearGradient714" spreadMethod="pad" y2="1.08279" x2="1.02254" y1="1.08279" x1="0.37923">
   <stop stop-color="#ffffff" id="stop708" offset="0"/>
   <stop stop-color="#ffffff" id="stop710" offset="0.69419"/>
   <stop stop-color="#e9e9e9" id="stop712" offset="1"/>
  </linearGradient>
  <linearGradient id="linearGradient742" spreadMethod="pad" y2="1.05292" x2="1.06845" y1="1.05292" x1="0.01887">
   <stop stop-color="#b2b1b1" id="stop732" offset="0"/>
   <stop stop-color="#f4f4f4" id="stop734" offset="0.08931"/>
   <stop stop-color="#f4f4f4" id="stop736" offset="0.23595"/>
   <stop stop-color="#b2b1b1" id="stop738" offset="0.77515"/>
   <stop stop-color="#b2b1b1" id="stop740" offset="1"/>
  </linearGradient>
  <linearGradient id="linearGradient760" spreadMethod="pad" y2="0.22888" x2="1.03716" y1="1.01041" x1="1.03716">
   <stop stop-color="#d3d2d2" id="stop754" offset="0"/>
   <stop stop-color="#ffffff" id="stop756" offset="0.64981"/>
   <stop stop-color="#ffffff" id="stop758" offset="1"/>
  </linearGradient>
  <linearGradient id="linearGradient778" spreadMethod="pad" y2="0.22934" x2="1.03716" y1="1.01071" x1="1.03716">
   <stop stop-color="#d3d2d2" id="stop772" offset="0"/>
   <stop stop-color="#ffffff" id="stop774" offset="0.64981"/>
   <stop stop-color="#ffffff" id="stop776" offset="1"/>
  </linearGradient>
  <linearGradient id="linearGradient796" spreadMethod="pad" y2="0.22919" x2="1.03716" y1="1.01059" x1="1.03716">
   <stop stop-color="#d3d2d2" id="stop790" offset="0"/>
   <stop stop-color="#ffffff" id="stop792" offset="0.64981"/>
   <stop stop-color="#ffffff" id="stop794" offset="1"/>
  </linearGradient>
  <linearGradient id="linearGradient814" spreadMethod="pad" y2="0.22953" x2="1.0274" y1="1.01106" x1="1.0274">
   <stop stop-color="#d3d2d2" id="stop808" offset="0"/>
   <stop stop-color="#ffffff" id="stop810" offset="0.64981"/>
   <stop stop-color="#ffffff" id="stop812" offset="1"/>
  </linearGradient>
  <linearGradient id="linearGradient834" spreadMethod="pad" y2="0.08403" x2="1.12955" y1="0.68838" x1="1.00106">
   <stop stop-color="#cceffc" id="stop826" offset="0"/>
   <stop stop-color="#f0fafe" id="stop828" offset="0.29213"/>
   <stop stop-color="#f0fafe" id="stop830" offset="0.63743"/>
   <stop stop-color="#80d6f7" id="stop832" offset="1"/>
  </linearGradient>
  <linearGradient id="linearGradient860" spreadMethod="pad" y2="1.02056" x2="1" y1="1.02056" x1="0.00562">
   <stop stop-color="#1672c3" id="stop850" offset="0"/>
   <stop stop-color="#1ea4e5" id="stop852" offset="0.27923"/>
   <stop stop-color="#1ea4e5" id="stop854" offset="0.40449"/>
   <stop stop-color="#1ea4e5" id="stop856" offset="0.58489"/>
   <stop stop-color="#1b64b8" id="stop858" offset="1"/>
  </linearGradient>
 </defs>
 <g>
  <title>background</title>
  <rect fill="none" id="canvas_background" height="646.73334" width="188.93335" y="-1" x="-1"/>
 </g>
 <g>
  <title>Layer 1</title>
  <g transform="matrix(1.3333333,0,0,-1.3333333,0,644.73333)" id="g10">
   <g transform="scale(0.1)" id="g12">
    <g id="g14">
     <g clip-path="url(#clipPath20)" id="g16">
      <path fill="url(#linearGradient30)" fill-rule="nonzero" id="path32" d="m3138.89,2091.22l0,1026.49c33.26,22.17 33.26,77.63 33.26,77.63l0,105.46c0,94.35 -5.51,266.34 -144.24,543.76c-138.75,277.42 -291.2,437.31 -291.2,437.31l0,165.98l-538.37,0l0,-165.98c0,0 -152.45,-159.89 -291.2,-437.31c-138.72,-277.42 -144.25,-449.41 -144.25,-543.76l0,-105.46c0,0 0,-55.46 33.27,-77.63l0,-1026.49c0,0 33.19,-22.29 33.19,-55.58c0,-33.29 -44.37,-55.46 -44.37,-55.46c0,0 0,-188.63 0,-382.82c0,-194.23 0,-732.391 0,-732.391c0,0 0,-299.649 0,-471.629c0,-172.039 49.95,-388.42984 266.38,-388.42984c0,0 182.73,-18.83596 294.03,50.07814c135.07,83.6637 238.93,3.8672 238.93,3.8672l5.33,-3.8672c105.4,-77.6836 294.05,-50.07814 294.05,-50.07814c216.43,0 266.36,216.39084 266.36,388.42984c0,171.98 0,471.629 0,471.629c0,0 0,538.161 0,732.391c0,194.19 0,382.82 0,382.82c0,0 -44.36,22.17 -44.36,55.46c0,33.29 33.19,55.58 33.19,55.58"/>
     </g>
    </g>
    <g id="g34">
     <g clip-path="url(#clipPath40)" id="g36">
      <path fill="url(#linearGradient48)" fill-rule="nonzero" id="path50" d="m2406.79,4281.11l-31.05,-1086.48l-480.97,0c0,0 -5.2,527.72 263.86,889.83l139.69,191.45l108.47,5.2"/>
     </g>
    </g>
    <g id="g52">
     <g clip-path="url(#clipPath58)" id="g54">
      <path fill="url(#linearGradient68)" fill-rule="nonzero" id="path70" d="m1796.16,3117.71c-33.27,22.17 -33.27,77.63 -33.27,77.63l1409.26,0c0,0 0,-55.46 -33.26,-77.63l-1342.73,0"/>
     </g>
    </g>
    <g id="g72">
     <g clip-path="url(#clipPath78)" id="g74">
      <path fill="url(#linearGradient88)" fill-rule="nonzero" id="path90" d="m3150.06,1980.18c0,0 -44.36,22.17 -44.36,55.46c0,33.29 33.19,55.58 33.19,55.58l-1342.73,0c0,0 33.19,-22.29 33.19,-55.58c0,-33.29 -44.37,-55.46 -44.37,-55.46l1365.08,0"/>
     </g>
    </g>
    <path fill="#a3e1f9" fill-rule="nonzero" id="path92" d="m2051.36,4.91016c-216.43,0 -266.38,216.39084 -266.38,388.42984c0,171.98 0,471.629 0,471.629c0,0 0,538.161 0,732.391c0,194.19 0,382.82 0,382.82c0,0 44.37,22.17 44.37,55.46c0,33.29 -33.19,55.58 -33.19,55.58l0,1026.49c-33.27,22.17 -33.27,77.63 -33.27,77.63l0,105.46c0,94.35 5.53,266.34 144.25,543.76c0,0 -84.45,-237.33 -102.26,-392.78c-17.81,-155.45 -13.32,-253.19 -13.32,-253.19c0,0 0,-48.86 35.51,-66.62l-13.34,-1030.47c0,0 35.57,-13.29 35.57,-62.18c0,-48.9 -44.42,-71.07 -44.42,-71.07l0,-1581.297c0,0 -22.28,-359.8436 246.48,-382.04284"/>
    <path fill="#219ade" fill-rule="nonzero" id="path94" d="m2883.7,4.91016c216.43,0 266.36,216.39084 266.36,388.42984c0,171.98 0,471.629 0,471.629c0,0 0,538.161 0,732.391c0,194.19 0,382.82 0,382.82c0,0 -44.36,22.17 -44.36,55.46c0,33.29 33.19,55.58 33.19,55.58l0,1026.49c33.26,22.17 33.26,77.63 33.26,77.63l0,105.46c0,94.35 -5.51,266.34 -144.24,543.76c0,0 84.45,-237.33 102.26,-392.78c17.81,-155.45 13.35,-253.19 13.35,-253.19c0,0 0,-48.86 -35.55,-66.62l13.35,-1030.47c0,0 -35.56,-13.29 -35.56,-62.18c0,-48.9 44.41,-71.07 44.41,-71.07l0,-1581.297c0,0 22.28,-359.8436 -246.47,-382.04284"/>
    <g id="g96">
     <g clip-path="url(#clipPath102)" id="g98">
      <path fill="url(#linearGradient110)" fill-rule="nonzero" id="path112" d="m1894.77,2090.92l480.969,0l0,1025.55l-480.969,0l0,-1025.55z"/>
     </g>
    </g>
    <g id="g114">
     <g clip-path="url(#clipPath120)" id="g116">
      <path fill="url(#linearGradient128)" fill-rule="nonzero" id="path130" d="m2375.74,121.602c0,0 -60.77,-91.9731 -240.01,-91.9731c-206.02,0 -240.96,91.9731 -240.96,91.9731l0,1857.718l480.97,0l0,-1857.718"/>
     </g>
    </g>
    <path fill="#57c9f4" fill-rule="nonzero" id="path132" d="m2614.34,225.242c-40.36,68.867 -134.01,78.852 -142.97,79.66l0,0.196c0,0 -0.76,-0.11 -0.84,-0.11c-0.1,0 -0.87,0.11 -0.87,0.11l0,-0.196c-8.95,-0.808 -102.59,-10.793 -142.96,-79.66c0,0 -135.59,44.336 -216.31,-48.554c9.91,10.011 82.5,77.031 218.12,39.328c0,0 40.41,69.91 142.02,70.293c101.58,-0.383 142.02,-70.293 142.02,-70.293c135.59,37.703 208.24,-29.368 218.12,-39.328c-80.71,92.89 -216.33,48.554 -216.33,48.554"/>
    <path fill="#57c9f4" fill-rule="nonzero" id="path134" d="m2585.41,85.1953c0,0 -41.71,31.6677 -52.13,56.2777c-10.3,24.328 -30.94,51.886 -61.62,52.511l0,0.188c-0.18,0 -0.29,-0.109 -0.45,-0.109c-0.22,0 -0.3,0.109 -0.49,0.109l0,-0.188c-31.05,-0.625 -51.89,-28.183 -62.36,-52.511c-10.59,-24.61 -52.76,-56.2777 -52.76,-56.2777c-200.44,-98.4687 -456.61,-10.5273 -456.61,-10.5273c0,0 48.02,-76.73831 214.08,-72.18753c177.43,4.92187 226.99,50.29293 263.56,70.10933c35.73,19.3243 91.95,19.7813 94.58,19.7813c2.54,0 58.08,-0.457 93.38,-19.7813c36.17,-19.8164 85.1,-65.18746 260.45,-70.10933c164.06,-4.55078 211.48,72.18753 211.48,72.18753c0,0 -253.12,-87.9414 -451.11,10.5273"/>
    <path fill="#219ade" fill-rule="nonzero" id="path136" d="m1898.99,74.668c0,0 5.31,-9.043 19.76,-20.3828c-13.59,11.3671 -19.76,20.3828 -19.76,20.3828zm1117.96,-20.4414c14.34,11.3984 19.57,20.4414 19.57,20.4414c0,0 -6.09,-9.0157 -19.57,-20.4414zm-455.44,32.7539c-47.7,30.5395 -85.08,32.5395 -89.85,32.6485l0,0.027c0,0 -0.37,0 -0.45,0c-0.11,0 -0.49,0 -0.49,0l0,-0.027c-4.77,-0.109 -42.6,-2.109 -90.95,-32.6485c-51.7,-32.6446 -92.49,-72.1094 -266.62,-77.54691c-111.92,-3.46484 -168.25,24.44531 -194.4,44.85161c26.77,-22.4102 84.29,-54.84379 194.32,-51.80473c177.43,4.92187 226.99,50.29293 263.56,70.10933c35.73,19.3243 91.95,19.7813 94.58,19.7813c2.54,0 58.08,-0.457 93.38,-19.7813c36.17,-19.8164 70.7,-73.39058 257.69,-72.57808c108.73,0.46484 168.25,31.86328 194.67,54.21488c-25.77,-20.3477 -81.45,-48.25785 -192.02,-44.79301c-172.02,5.43751 -212.32,44.90231 -263.42,77.54691"/>
    <g id="g138">
     <g clip-path="url(#clipPath144)" id="g140">
      <path fill="url(#linearGradient152)" fill-rule="nonzero" id="path154" d="m2736.68,4447.85l-538.37,0l0,-165.98c0,0 -82.34,-86.54 -181,-242.34l900.38,0c-98.66,155.8 -181.01,242.34 -181.01,242.34l0,165.98"/>
     </g>
    </g>
    <g id="g156">
     <g clip-path="url(#clipPath162)" id="g158">
      <path fill="url(#linearGradient170)" fill-rule="nonzero" id="path172" d="m2298.3,4275.91l-139.7,-191.45c-10.91,-14.67 -21.22,-29.72 -31.26,-44.93l272.52,0l6.9,241.58l-108.46,-5.2"/>
     </g>
    </g>
    <g id="g174">
     <g clip-path="url(#clipPath180)" id="g176">
      <g clip-path="url(#clipPath186)" id="g182">
       <path fill="url(#linearGradient198)" fill-rule="nonzero" id="path200" d="m2138,4448l0,288l1,0l0,8l1,0l0,5l1,0l0,5l1,0l0,4l1,0l0,3l1,0l0,3l1,0l0,3l1,0l0,3l1,0l0,2l1,0l0,2l1,0l0,2l1,0l0,2l1,0l0,2l1,0l0,2l1,0l0,2l1,0l0,2l1,0l0,1l1,0l0,2l1,0l0,1l1,0l0,2l1,0l0,1l1,0l0,2l1,0l0,1l1,0l0,1l1,0l0,1l1,0l0,2l1,0l0,1l1,0l0,1l1,0l0,1l1,0l0,1l1,0l0,1l1,0l0,1l1,0l0,1l1,0l0,1l1,0l0,1l1,0l0,1l1,0l0,1l1,0l0,1l1,0l0,1l1,0l0,1l2,0l0,1l1,0l0,1l1,0l0,1l1,0l0,1l2,0l0,1l1,0l0,1l2,0l0,1l1,0l0,1l2,0l0,1l2,0l0,1l2,0l0,1l2,0l0,1l1,0l0,1l2,0l0,1l3,0l0,1l2,0l0,1l3,0l0,1l3,0l0,1l4,0l0,1l3,0l0,1l5,0l0,1l484,0l0,-1l5,0l0,-1l4,0l0,-1l4,0l0,-1l3,0l0,-1l2,0l0,-1l3,0l0,-1l2,0l0,-1l2,0l0,-1l2,0l0,-1l2,0l0,-1l2,0l0,-1l2,0l0,-1l1,0l0,-1l2,0l0,-1l1,0l0,-1l2,0l0,-1l1,0l0,-1l1,0l0,-1l2,0l0,-1l1,0l0,-1l1,0l0,-1l1,0l0,-1l2,0l0,-1l1,0l0,-1l1,0l0,-1l1,0l0,-1l1,0l0,-1l1,0l0,-1l1,0l0,-1l1,0l0,-1l1,0l0,-1l1,0l0,-1l1,0l0,-2l1,0l0,-1l1,0l0,-1l1,0l0,-1l1,0l0,-2l1,0l0,-1l1,0l0,-1l1,0l0,-2l1,0l0,-1l1,0l0,-2l1,0l0,-1l1,0l0,-2l1,0l0,-2l1,0l0,-2l1,0l0,-2l1,0l0,-1l1,0l0,-3l1,0l0,-2l1,0l0,-2l1,0l0,-2l1,0l0,-3l1,0l0,-3l1,0l0,-3l1,0l0,-4l1,0l0,-4l1,0l0,-4l1,0l0,-7l1,0l0,-12l1,0l0,-281"/>
      </g>
     </g>
    </g>
    <g id="g202">
     <g clip-path="url(#clipPath208)" id="g204">
      <path fill="url(#linearGradient216)" fill-rule="nonzero" id="path218" d="m2198.45,4281.87l538.238,0l0,19.5156l-538.238,0l0,-19.5156z"/>
     </g>
    </g>
    <g id="g220">
     <g clip-path="url(#clipPath226)" id="g222">
      <path fill="url(#linearGradient234)" fill-rule="nonzero" id="path236" d="m2198.45,4326.53l538.238,0l0,19.5195l-538.238,0l0,-19.5195z"/>
     </g>
    </g>
    <g id="g238">
     <g clip-path="url(#clipPath244)" id="g240">
      <path fill="url(#linearGradient252)" fill-rule="nonzero" id="path254" d="m2198.45,4374.84l538.238,0l0,19.543l-538.238,0l0,-19.543z"/>
     </g>
    </g>
    <g id="g256">
     <g clip-path="url(#clipPath262)" id="g258">
      <path fill="url(#linearGradient270)" fill-rule="nonzero" id="path272" d="m2096.94,4408.65l729.973,0l0,19.5156l-729.973,0l0,-19.5156z"/>
     </g>
    </g>
    <g id="g274">
     <g clip-path="url(#clipPath280)" id="g276">
      <path fill="url(#linearGradient290)" fill-rule="nonzero" id="path292" d="m2901.29,3956.35c0,0 86.64,-306.65 89.46,-732.64c0,0 37.46,0.65 76.17,-7.5c38.7,-8.1 37.54,39.43 37.54,39.43c0,0 -17.92,437.09 -203.17,700.71"/>
     </g>
    </g>
    <path fill="#a3e1f9" fill-rule="nonzero" id="path294" d="m3083.02,2124.76l-83.69,0l0,962.39l83.69,0l0,-962.39"/>
    <path fill="#a3e1f9" fill-rule="nonzero" id="path296" d="m2999.33,102.227l0,1834.653l83.69,0l0,-1599.9c0,0 0.16,-187.847 -83.69,-234.753"/>
    <g id="g298">
     <g clip-path="url(#clipPath304)" id="g300">
      <path fill="url(#linearGradient312)" fill-rule="nonzero" id="path314" d="m1375.99,2091.22l0,1026.49c33.27,22.17 33.27,77.63 33.27,77.63l0,105.46c0,94.35 -5.53,266.34 -144.24,543.76c-138.75,277.42 -291.204,437.31 -291.204,437.31l0,165.98l-538.378,0l0,-165.98c0,0 -152.446,-159.89 -291.196,-437.31c-138.71856,-277.42 -144.242,-449.41 -144.242,-543.76l0,-105.46c0,0 0,-55.46 33.2656,-77.63l0,-1026.49c0,0 33.1836,-22.29 33.1836,-55.58c0,-33.29 -44.3594,-55.46 -44.3594,-55.46c0,0 0,-188.63 0,-382.82c0,-194.23 0,-732.391 0,-732.391c0,0 0,-299.649 0,-471.629c0,-172.039 49.9375,-388.42984 266.3712,-388.42984c0,0 182.734,-18.83596 294.039,50.07814c135.066,83.6637 238.926,3.8672 238.926,3.8672l5.332,-3.8672c105.406,-77.6836 294.042,-50.07814 294.042,-50.07814c216.43,0 266.37,216.39084 266.37,388.42984c0,171.98 0,471.629 0,471.629c0,0 0,538.161 0,732.391c0,194.19 0,382.82 0,382.82c0,0 -44.36,22.17 -44.36,55.46c0,33.29 33.18,55.58 33.18,55.58"/>
     </g>
    </g>
    <g id="g316">
     <g clip-path="url(#clipPath322)" id="g318">
      <g clip-path="url(#clipPath328)" id="g324">
       <path fill="url(#linearGradient340)" fill-rule="nonzero" id="path342" d="m375,4448l0,286l1,0l0,9l1,0l0,6l1,0l0,4l1,0l0,4l1,0l0,4l1,0l0,3l1,0l0,2l1,0l0,3l1,0l0,2l1,0l0,3l1,0l0,2l1,0l0,2l1,0l0,2l1,0l0,2l1,0l0,2l1,0l0,1l1,0l0,2l1,0l0,2l1,0l0,1l1,0l0,2l1,0l0,1l1,0l0,1l1,0l0,2l1,0l0,1l1,0l0,1l1,0l0,1l1,0l0,2l1,0l0,1l1,0l0,1l1,0l0,1l1,0l0,1l1,0l0,1l1,0l0,1l1,0l0,1l1,0l0,1l1,0l0,1l1,0l0,1l1,0l0,1l1,0l0,1l2,0l0,1l1,0l0,1l1,0l0,1l1,0l0,1l2,0l0,1l1,0l0,1l2,0l0,1l1,0l0,1l2,0l0,1l1,0l0,1l2,0l0,1l2,0l0,1l2,0l0,1l2,0l0,1l2,0l0,1l2,0l0,1l3,0l0,1l2,0l0,1l3,0l0,1l4,0l0,1l3,0l0,1l6,0l0,1l483,0l0,-1l6,0l0,-1l3,0l0,-1l4,0l0,-1l3,0l0,-1l2,0l0,-1l3,0l0,-1l2,0l0,-1l2,0l0,-1l2,0l0,-1l2,0l0,-1l2,0l0,-1l2,0l0,-1l1,0l0,-1l2,0l0,-1l1,0l0,-1l2,0l0,-1l1,0l0,-1l2,0l0,-1l1,0l0,-1l1,0l0,-1l1,0l0,-1l2,0l0,-1l1,0l0,-1l1,0l0,-1l1,0l0,-1l1,0l0,-1l1,0l0,-1l1,0l0,-1l1,0l0,-1l1,0l0,-1l1,0l0,-1l1,0l0,-1l1,0l0,-2l1,0l0,-1l1,0l0,-1l1,0l0,-1l1,0l0,-1l1,0l0,-2l1,0l0,-1l1,0l0,-2l1,0l0,-1l1,0l0,-2l1,0l0,-1l1,0l0,-2l1,0l0,-2l1,0l0,-2l1,0l0,-1l1,0l0,-2l1,0l0,-2l1,0l0,-3l1,0l0,-2l1,0l0,-2l1,0l0,-3l1,0l0,-3l1,0l0,-3l1,0l0,-3l1,0l0,-5l1,0l0,-4l1,0l0,-7l1,0l0,-10l1,0l0,-283"/>
      </g>
     </g>
    </g>
    <g id="g344">
     <g clip-path="url(#clipPath350)" id="g346">
      <path fill="url(#linearGradient362)" fill-rule="nonzero" id="path364" d="m33.2656,3117.71c-33.2656,22.17 -33.2656,77.63 -33.2656,77.63l1409.26,0c0,0 0,-55.46 -33.27,-77.63l-1342.7244,0"/>
     </g>
    </g>
    <g id="g366">
     <g clip-path="url(#clipPath372)" id="g368">
      <path fill="url(#linearGradient384)" fill-rule="nonzero" id="path386" d="m1387.17,1980.18c0,0 -44.36,22.17 -44.36,55.46c0,33.29 33.18,55.58 33.18,55.58l-1342.7244,0c0,0 33.1836,-22.29 33.1836,-55.58c0,-33.29 -44.3594,-55.46 -44.3594,-55.46l1365.0802,0"/>
     </g>
    </g>
    <path fill="#dcdbdb" fill-rule="nonzero" id="path388" d="m288.461,4.91016c-216.4337,0 -266.3712,216.39084 -266.3712,388.42984c0,171.98 0,471.629 0,471.629c0,0 0,538.161 0,732.391c0,194.19 0,382.82 0,382.82c0,0 44.3594,22.17 44.3594,55.46c0,33.29 -33.1836,55.58 -33.1836,55.58l0,1026.49c-33.2656,22.17 -33.2656,77.63 -33.2656,77.63l0,105.46c0,94.35 5.52344,266.34 144.242,543.76c0,0 -84.4451,-237.33 -102.2615,-392.78c-17.8086,-155.45 -13.3125,-253.19 -13.3125,-253.19c0,0 0,-48.86 35.5117,-66.62l-13.3438,-1030.47c0,0 35.5664,-13.29 35.5664,-62.18c0,-48.9 -44.4218,-71.07 -44.4218,-71.07l0,-1581.297c0,0 -22.2735,-359.8436 246.4805,-382.04284"/>
    <path fill="#b4b3b3" fill-rule="nonzero" id="path390" d="m1120.8,4.91016c216.43,0 266.37,216.39084 266.37,388.42984c0,171.98 0,471.629 0,471.629c0,0 0,538.161 0,732.391c0,194.19 0,382.82 0,382.82c0,0 -44.36,22.17 -44.36,55.46c0,33.29 33.18,55.58 33.18,55.58l0,1026.49c33.27,22.17 33.27,77.63 33.27,77.63l0,105.46c0,94.35 -5.53,266.34 -144.24,543.76c0,0 84.44,-237.33 102.25,-392.78c17.81,-155.45 13.35,-253.19 13.35,-253.19c0,0 0,-48.86 -35.54,-66.62l13.34,-1030.47c0,0 -35.56,-13.29 -35.56,-62.18c0,-48.9 44.41,-71.07 44.41,-71.07l0,-1581.297c0,0 22.28,-359.8436 -246.47,-382.04284"/>
    <g id="g392">
     <g clip-path="url(#clipPath398)" id="g394">
      <path fill="url(#linearGradient406)" fill-rule="nonzero" id="path408" d="m435.574,4281.87l538.242,0l0,19.5156l-538.242,0l0,-19.5156z"/>
     </g>
    </g>
    <g id="g410">
     <g clip-path="url(#clipPath416)" id="g412">
      <path fill="url(#linearGradient424)" fill-rule="nonzero" id="path426" d="m435.574,4326.53l538.242,0l0,19.5195l-538.242,0l0,-19.5195z"/>
     </g>
    </g>
    <g id="g428">
     <g clip-path="url(#clipPath434)" id="g430">
      <path fill="url(#linearGradient442)" fill-rule="nonzero" id="path444" d="m435.574,4374.84l538.242,0l0,19.543l-538.242,0l0,-19.543z"/>
     </g>
    </g>
    <g id="g446">
     <g clip-path="url(#clipPath452)" id="g448">
      <path fill="url(#linearGradient460)" fill-rule="nonzero" id="path462" d="m334.07,4408.65l729.961,0l0,19.5156l-729.961,0l0,-19.5156z"/>
     </g>
    </g>
    <g id="g464">
     <g clip-path="url(#clipPath470)" id="g466">
      <path fill="url(#linearGradient478)" fill-rule="nonzero" id="path480" d="m643.887,4281.11l-31.047,-1086.48l-480.965,0c0,0 -5.195,527.72 263.855,889.83l139.7,191.45l108.457,5.2"/>
     </g>
    </g>
    <g id="g482">
     <g clip-path="url(#clipPath488)" id="g484">
      <path fill="url(#linearGradient496)" fill-rule="nonzero" id="path498" d="m131.875,2090.92l480.965,0l0,1025.55l-480.965,0l0,-1025.55z"/>
     </g>
    </g>
    <g id="g500">
     <g clip-path="url(#clipPath506)" id="g502">
      <path fill="url(#linearGradient514)" fill-rule="nonzero" id="path516" d="m612.84,121.602c0,0 -60.766,-91.9731 -240.008,-91.9731c-206.012,0 -240.957,91.9731 -240.957,91.9731l0,1857.718l480.965,0l0,-1857.718"/>
     </g>
    </g>
    <path fill="#d3d2d2" fill-rule="nonzero" id="path518" d="m851.445,225.242c-40.355,68.867 -134.015,78.852 -142.972,79.66l0,0.196c0,0 -0.758,-0.11 -0.84,-0.11c-0.11,0 -0.867,0.11 -0.867,0.11l0,-0.196c-8.957,-0.808 -102.586,-10.793 -142.973,-79.66c0,0 -135.578,44.336 -216.297,-48.554c9.906,10.011 82.504,77.031 218.113,39.328c0,0 40.411,69.91 142.024,70.293c101.586,-0.383 142.023,-70.293 142.023,-70.293c135.582,37.703 208.234,-29.368 218.114,-39.328c-80.715,92.89 -216.325,48.554 -216.325,48.554"/>
    <path fill="#c4c3c3" fill-rule="nonzero" id="path520" d="m822.508,85.1953c0,0 -41.711,31.6677 -52.133,56.2777c-10.281,24.328 -30.937,51.886 -61.605,52.511l0,0.188c-0.192,0 -0.297,-0.109 -0.461,-0.109c-0.219,0 -0.297,0.109 -0.489,0.109l0,-0.188c-31.043,-0.625 -51.886,-28.183 -62.359,-52.511c-10.59,-24.61 -52.758,-56.2777 -52.758,-56.2777c-200.437,-98.4687 -456.605,-10.5273 -456.605,-10.5273c0,0 48.019,-76.73831 214.078,-72.18753c177.429,4.92187 226.992,50.29293 263.558,70.10933c35.731,19.3243 91.95,19.7813 94.575,19.7813c2.546,0 58.086,-0.457 93.386,-19.7813c36.16,-19.8164 85.102,-65.18746 260.445,-70.10933c164.06,-4.55078 211.48,72.18753 211.48,72.18753c0,0 -253.11,-87.9414 -451.112,10.5273"/>
    <path fill="#9a9898" fill-rule="nonzero" id="path522" d="m136.098,74.668c0,0 5.304,-9.043 19.757,-20.3828c-13.585,11.3671 -19.757,20.3828 -19.757,20.3828zm1117.952,-20.4414c14.35,11.3984 19.57,20.4414 19.57,20.4414c0,0 -6.09,-9.0157 -19.57,-20.4414zm-455.441,32.7539c-47.695,30.5395 -85.074,32.5395 -89.839,32.6485l0,0.027c0,0 -0.375,0 -0.461,0c-0.106,0 -0.489,0 -0.489,0l0,-0.027c-4.757,-0.109 -42.601,-2.109 -90.945,-32.6485c-51.699,-32.6446 -92.492,-72.1094 -266.617,-77.54691c-111.922,-3.46484 -168.25,24.44531 -194.403,44.85161c26.774,-22.4102 84.29,-54.84379 194.321,-51.80473c177.429,4.92187 226.992,50.29293 263.558,70.10933c35.731,19.3243 91.95,19.7813 94.575,19.7813c2.546,0 58.086,-0.457 93.386,-19.7813c36.16,-19.8164 70.703,-73.39058 257.685,-72.57808c108.73,0.46484 168.25,31.86328 194.67,54.21488c-25.77,-20.3477 -81.45,-48.25785 -192.02,-44.79301c-172.014,5.43751 -212.319,44.90231 -263.421,77.54691"/>
    <g id="g524">
     <g clip-path="url(#clipPath530)" id="g526">
      <path fill="url(#linearGradient538)" fill-rule="nonzero" id="path540" d="m1150.82,3956.35c0,0 86.64,-306.65 89.45,-732.64c0,0 37.46,0.65 76.17,-7.5c38.71,-8.1 37.54,39.43 37.54,39.43c0,0 -17.92,437.09 -203.16,700.71"/>
     </g>
    </g>
    <path fill="#f2f2f2" fill-rule="nonzero" id="path542" d="m1321.88,2124.76l-83.69,0l0,962.39l83.69,0l0,-962.39"/>
    <path fill="#f2f2f2" fill-rule="nonzero" id="path544" d="m1238.19,102.227l0,1834.653l83.69,0l0,-1599.9c0,0 0.17,-187.847 -83.69,-234.753"/>
    <g id="g546">
     <g clip-path="url(#clipPath552)" id="g548">
      <g clip-path="url(#clipPath558)" id="g554">
       <path fill="url(#linearGradient568)" fill-rule="nonzero" id="path570" d="m4505,0l0,1l-15,0l0,1l-11,0l0,1l-9,0l0,1l-9,0l0,1l-6,0l0,1l-7,0l0,1l-6,0l0,1l-6,0l0,1l-4,0l0,1l-5,0l0,1l-4,0l0,1l-5,0l0,1l-4,0l0,1l-4,0l0,1l-4,0l0,1l-3,0l0,1l-3,0l0,1l-4,0l0,1l-3,0l0,1l-3,0l0,1l-3,0l0,1l-3,0l0,1l-3,0l0,1l-2,0l0,1l-3,0l0,1l-2,0l0,1l-3,0l0,1l-3,0l0,1l-2,0l0,1l-3,0l0,1l-2,0l0,1l-2,0l0,1l-2,0l0,1l-2,0l0,1l-2,0l0,1l-2,0l0,1l-2,0l0,1l-2,0l0,1l-2,0l0,1l-2,0l0,1l-1,0l0,1l-2,0l0,1l-2,0l0,1l-1,0l0,1l-2,0l0,1l-2,0l0,1l-1,0l0,1l-2,0l0,1l-1,0l0,1l-2,0l0,1l-1,0l0,1l-2,0l0,1l-1,0l0,1l-2,0l0,1l-1,0l0,1l-1,0l0,1l-2,0l0,1l-1,0l0,1l-1,0l0,1l-2,0l0,1l-1,0l0,1l-2,0l0,1l-2,0l0,1l-1,0l0,1l-2,0l0,1l-2,0l0,1l-2,0l0,1l-1,0l0,1l-2,0l0,1l-2,0l0,1l-2,0l0,1l-2,0l0,1l-2,0l0,1l-3,0l0,1l-2,0l0,1l-2,0l0,1l-3,0l0,1l-2,0l0,1l-3,0l0,1l-3,0l0,1l-3,0l0,1l-3,0l0,1l-2,0l0,1l-4,0l0,1l-4,0l0,1l-4,0l0,1l-4,0l0,1l-5,0l0,1l-5,0l0,1l-6,0l0,1l-9,0l0,1l-39,0l0,-1l-10,0l0,-1l-6,0l0,-1l-5,0l0,-1l-5,0l0,-1l-5,0l0,-1l-4,0l0,-1l-3,0l0,-1l-3,0l0,-1l-3,0l0,-1l-4,0l0,-1l-3,0l0,-1l-3,0l0,-1l-3,0l0,-1l-2,0l0,-1l-3,0l0,-1l-2,0l0,-1l-2,0l0,-1l-3,0l0,-1l-2,0l0,-1l-2,0l0,-1l-3,0l0,-1l-2,0l0,-1l-2,0l0,-1l-2,0l0,-1l-2,0l0,-1l-2,0l0,-1l-2,0l0,-1l-2,0l0,-1l-2,0l0,-1l-2,0l0,-1l-1,0l0,-1l-2,0l0,-1l-2,0l0,-1l-2,0l0,-1l-2,0l0,-1l-1,0l0,-1l-2,0l0,-1l-1,0l0,-1l-2,0l0,-1l-2,0l0,-1l-1,0l0,-1l-2,0l0,-1l-2,0l0,-1l-2,0l0,-1l-2,0l0,-1l-2,0l0,-1l-2,0l0,-1l-2,0l0,-1l-2,0l0,-1l-2,0l0,-1l-2,0l0,-1l-2,0l0,-1l-3,0l0,-1l-2,0l0,-1l-2,0l0,-1l-3,0l0,-1l-2,0l0,-1l-2,0l0,-1l-2,0l0,-1l-3,0l0,-1l-3,0l0,-1l-3,0l0,-1l-3,0l0,-1l-3,0l0,-1l-3,0l0,-1l-3,0l0,-1l-3,0l0,-1l-3,0l0,-1l-4,0l0,-1l-3,0l0,-1l-4,0l0,-1l-4,0l0,-1l-3,0l0,-1l-4,0l0,-1l-5,0l0,-1l-4,0l0,-1l-5,0l0,-1l-5,0l0,-1l-5,0l0,-1l-5,0l0,-1l-7,0l0,-1l-6,0l0,-1l-6,0l0,-1l-8,0l0,-1l-8,0l0,-1l-9,0l0,-1l-12,0l0,-1l-13,0l0,-1l-20,0l0,-1l-52,0l0,1l-20,0l0,1l-19,0l0,1l-17,0l0,1l-11,0l0,1l-7,0l0,1l-6,0l0,1l-6,0l0,1l-5,0l0,1l-4,0l0,1l-4,0l0,1l-4,0l0,1l-4,0l0,1l-3,0l0,1l-3,0l0,1l-3,0l0,1l-3,0l0,1l-3,0l0,1l-3,0l0,1l-2,0l0,1l-2,0l0,1l-3,0l0,1l-2,0l0,1l-3,0l0,1l-2,0l0,1l-2,0l0,1l-2,0l0,1l-2,0l0,1l-2,0l0,1l-2,0l0,1l-2,0l0,1l-1,0l0,1l-2,0l0,1l-2,0l0,1l-1,0l0,1l-2,0l0,1l-2,0l0,1l-1,0l0,1l-2,0l0,1l-2,0l0,1l-1,0l0,1l-1,0l0,1l-2,0l0,1l-1,0l0,1l-2,0l0,1l-1,0l0,1l-1,0l0,1l-2,0l0,1l-1,0l0,1l-1,0l0,1l-2,0l0,1l-1,0l0,1l-1,0l0,1l-1,0l0,1l-1,0l0,1l-2,0l0,1l-1,0l0,1l-1,0l0,1l-1,0l0,1l-1,0l0,1l-1,0l0,1l-1,0l0,1l-1,0l0,1l-1,0l0,1l-1,0l0,1l-2,0l0,1l-1,0l0,1l-1,0l0,1l-1,0l0,1l-1,0l0,1l-1,0l0,2l-1,0l0,1l-1,0l0,1l-1,0l0,1l-1,0l0,1l-1,0l0,1l-1,0l0,1l-1,0l0,1l-1,0l0,1l-1,0l0,2l-1,0l0,1l-1,0l0,1l-1,0l0,1l-1,0l0,2l-1,0l0,1l-1,0l0,1l-1,0l0,1l-1,0l0,1l-1,0l0,2l-1,0l0,1l-1,0l0,2l-1,0l0,1l-1,0l0,1l-1,0l0,2l-1,0l0,1l-1,0l0,2l-1,0l0,1l-1,0l0,2l-1,0l0,1l-1,0l0,2l-1,0l0,1l-1,0l0,2l-1,0l0,2l-1,0l0,1l-1,0l0,2l-1,0l0,1l-1,0l0,2l-1,0l0,2l-1,0l0,2l-1,0l0,2l-1,0l0,1l-1,0l0,2l-1,0l0,2l-1,0l0,2l-1,0l0,2l-1,0l0,2l-1,0l0,2l-1,0l0,2l-1,0l0,2l-1,0l0,2l-1,0l0,2l-1,0l0,2l-1,0l0,3l-1,0l0,2l-1,0l0,2l-1,0l0,3l-1,0l0,2l-1,0l0,2l-1,0l0,3l-1,0l0,3l-1,0l0,2l-1,0l0,3l-1,0l0,2l-1,0l0,3l-1,0l0,3l-1,0l0,3l-1,0l0,3l-1,0l0,3l-1,0l0,3l-1,0l0,3l-1,0l0,4l-1,0l0,3l-1,0l0,3l-1,0l0,4l-1,0l0,4l-1,0l0,4l-1,0l0,4l-1,0l0,4l-1,0l0,4l-1,0l0,5l-1,0l0,4l-1,0l0,5l-1,0l0,5l-1,0l0,5l-1,0l0,6l-1,0l0,6l-1,0l0,6l-1,0l0,6l-1,0l0,8l-1,0l0,7l-1,0l0,9l-1,0l0,10l-1,0l0,11l-1,0l0,14l-1,0l0,19l-1,0l0,1622l1,0l0,1l2,0l0,1l2,0l0,1l1,0l0,1l2,0l0,1l1,0l0,1l2,0l0,1l1,0l0,1l2,0l0,1l1,0l0,1l1,0l0,1l2,0l0,1l1,0l0,1l1,0l0,1l1,0l0,1l2,0l0,1l1,0l0,1l1,0l0,1l1,0l0,1l1,0l0,1l1,0l0,1l1,0l0,1l1,0l0,1l1,0l0,2l1,0l0,1l1,0l0,1l1,0l0,2l1,0l0,1l1,0l0,1l1,0l0,2l1,0l0,2l1,0l0,2l1,0l0,2l1,0l0,3l1,0l0,2l1,0l0,5l1,0l0,12l-1,0l0,6l-1,0l0,3l-1,0l0,3l-1,0l0,2l-1,0l0,3l-1,0l0,2l-1,0l0,1l-1,0l0,2l-1,0l0,2l-1,0l0,2l-1,0l0,1l-1,0l0,1l-1,0l0,2l-1,0l0,1l-1,0l0,1l-1,0l0,2l-1,0l0,1l-1,0l0,1l-1,0l0,1l-1,0l0,1l-1,0l0,1l-1,0l0,1l-1,0l0,1l-1,0l0,1l-1,0l0,1l-1,0l0,1l-2,0l0,1l-1,0l0,1l-1,0l0,1l-1,0l0,1l-2,0l0,1028l-2,0l0,1l-1,0l0,1l-1,0l0,1l-2,0l0,1l-1,0l0,1l-1,0l0,1l-1,0l0,1l-1,0l0,1l-1,0l0,2l-1,0l0,1l-1,0l0,1l-1,0l0,1l-1,0l0,2l-1,0l0,1l-1,0l0,2l-1,0l0,2l-1,0l0,1l-1,0l0,2l-1,0l0,2l-1,0l0,2l-1,0l0,3l-1,0l0,2l-1,0l0,3l-1,0l0,3l-1,0l0,3l-1,0l0,3l-1,0l0,4l-1,0l0,5l-1,0l0,5l-1,0l0,8l-1,0l0,163l1,0l0,21l1,0l0,15l1,0l0,12l1,0l0,10l1,0l0,10l1,0l0,8l1,0l0,8l1,0l0,8l1,0l0,7l1,0l0,6l1,0l0,7l1,0l0,6l1,0l0,6l1,0l0,6l1,0l0,5l1,0l0,5l1,0l0,5l1,0l0,6l1,0l0,5l1,0l0,4l1,0l0,5l1,0l0,4l1,0l0,5l1,0l0,4l1,0l0,4l1,0l0,5l1,0l0,4l1,0l0,4l1,0l0,4l1,0l0,4l1,0l0,4l1,0l0,3l1,0l0,4l1,0l0,4l1,0l0,4l1,0l0,4l1,0l0,3l1,0l0,4l1,0l0,3l1,0l0,3l1,0l0,4l1,0l0,3l1,0l0,3l1,0l0,4l1,0l0,3l1,0l0,3l1,0l0,4l1,0l0,3l1,0l0,3l1,0l0,3l1,0l0,3l1,0l0,3l1,0l0,3l1,0l0,3l1,0l0,3l1,0l0,3l1,0l0,3l1,0l0,3l1,0l0,3l1,0l0,3l1,0l0,3l1,0l0,3l1,0l0,3l1,0l0,3l1,0l0,2l1,0l0,3l1,0l0,3l1,0l0,2l1,0l0,3l1,0l0,3l1,0l0,2l1,0l0,3l1,0l0,3l1,0l0,2l1,0l0,3l1,0l0,3l1,0l0,2l1,0l0,3l1,0l0,3l1,0l0,2l1,0l0,3l1,0l0,2l1,0l0,3l1,0l0,2l1,0l0,2l1,0l0,3l1,0l0,2l1,0l0,3l1,0l0,2l1,0l0,3l1,0l0,2l1,0l0,3l1,0l0,2l1,0l0,2l1,0l0,3l1,0l0,2l1,0l0,3l1,0l0,2l1,0l0,2l1,0l0,3l1,0l0,2l1,0l0,2l1,0l0,2l1,0l0,3l1,0l0,2l1,0l0,2l1,0l0,2l1,0l0,3l1,0l0,2l1,0l0,2l1,0l0,2l1,0l0,3l1,0l0,2l1,0l0,2l1,0l0,2l1,0l0,3l1,0l0,2l1,0l0,2l1,0l0,2l1,0l0,2l1,0l0,2l1,0l0,3l1,0l0,2l1,0l0,2l1,0l0,2l1,0l0,2l1,0l0,2l1,0l0,2l1,0l0,2l1,0l0,2l1,0l0,2l1,0l0,3l1,0l0,2l1,0l0,2l1,0l0,2l1,0l0,2l1,0l0,2l1,0l0,2l1,0l0,2l1,0l0,2l1,0l0,2l1,0l0,2l1,0l0,2l1,0l0,2l1,0l0,2l1,0l0,2l1,0l0,2l1,0l0,2l1,0l0,2l1,0l0,2l1,0l0,2l1,0l0,2l1,0l0,2l1,0l0,2l1,0l0,2l1,0l0,2l1,0l0,2l1,0l0,1l1,0l0,2l1,0l0,2l1,0l0,2l1,0l0,2l1,0l0,2l1,0l0,2l1,0l0,2l1,0l0,2l1,0l0,2l1,0l0,2l1,0l0,2l1,0l0,1l1,0l0,2l1,0l0,2l1,0l0,2l1,0l0,2l1,0l0,2l1,0l0,1l1,0l0,2l1,0l0,2l1,0l0,2l1,0l0,2l1,0l0,1l1,0l0,2l1,0l0,2l1,0l0,2l1,0l0,2l1,0l0,2l1,0l0,1l1,0l0,2l1,0l0,2l1,0l0,2l1,0l0,2l1,0l0,2l1,0l0,1l1,0l0,2l1,0l0,2l1,0l0,2l1,0l0,2l1,0l0,1l1,0l0,2l1,0l0,2l1,0l0,1l1,0l0,2l1,0l0,2l1,0l0,2l1,0l0,1l1,0l0,2l1,0l0,2l1,0l0,1l1,0l0,2l1,0l0,2l1,0l0,2l1,0l0,1l1,0l0,2l1,0l0,2l1,0l0,2l1,0l0,1l1,0l0,2l1,0l0,2l1,0l0,1l1,0l0,2l1,0l0,2l1,0l0,2l1,0l0,1l1,0l0,2l1,0l0,2l1,0l0,1l1,0l0,2l1,0l0,1l1,0l0,2l1,0l0,2l1,0l0,1l1,0l0,2l1,0l0,2l1,0l0,1l1,0l0,2l1,0l0,2l1,0l0,1l1,0l0,2l1,0l0,1l1,0l0,2l1,0l0,2l1,0l0,1l1,0l0,2l1,0l0,2l1,0l0,1l1,0l0,2l1,0l0,2l1,0l0,1l1,0l0,2l1,0l0,1l1,0l0,2l1,0l0,1l1,0l0,2l1,0l0,2l1,0l0,1l1,0l0,2l1,0l0,1l1,0l0,2l1,0l0,1l1,0l0,2l1,0l0,1l1,0l0,2l1,0l0,2l1,0l0,1l1,0l0,2l1,0l0,1l1,0l0,2l1,0l0,1l1,0l0,2l1,0l0,2l1,0l0,1l1,0l0,2l1,0l0,1l1,0l0,2l1,0l0,1l1,0l0,2l1,0l0,1l1,0l0,2l1,0l0,1l1,0l0,2l1,0l0,1l1,0l0,2l1,0l0,1l1,0l0,2l1,0l0,1l1,0l0,2l1,0l0,1l1,0l0,2l1,0l0,1l1,0l0,2l1,0l0,1l1,0l0,1l1,0l0,2l1,0l0,1l1,0l0,2l1,0l0,1l1,0l0,2l1,0l0,1l1,0l0,2l1,0l0,1l1,0l0,2l1,0l0,1l1,0l0,1l1,0l0,2l1,0l0,1l1,0l0,2l1,0l0,1l1,0l0,2l1,0l0,1l1,0l0,1l1,0l0,2l1,0l0,1l1,0l0,2l1,0l0,1l1,0l0,2l1,0l0,1l1,0l0,1l1,0l0,2l1,0l0,1l1,0l0,2l1,0l0,1l1,0l0,2l1,0l0,1l1,0l0,1l1,0l0,2l1,0l0,1l1,0l0,1l1,0l0,2l1,0l0,1l1,0l0,1l1,0l0,2l1,0l0,1l1,0l0,2l1,0l0,1l1,0l0,1l1,0l0,2l1,0l0,1l1,0l0,1l1,0l0,2l1,0l0,1l1,0l0,2l1,0l0,1l1,0l0,1l1,0l0,2l1,0l0,1l1,0l0,1l1,0l0,2l1,0l0,1l1,0l0,1l1,0l0,1l1,0l0,2l1,0l0,1l1,0l0,1l1,0l0,2l1,0l0,1l1,0l0,1l1,0l0,2l1,0l0,1l1,0l0,1l1,0l0,2l1,0l0,1l1,0l0,1l1,0l0,2l1,0l0,1l1,0l0,1l1,0l0,1l1,0l0,2l1,0l0,1l1,0l0,1l1,0l0,2l1,0l0,1l1,0l0,1l1,0l0,1l1,0l0,2l1,0l0,1l1,0l0,1l1,0l0,1l1,0l0,2l1,0l0,1l1,0l0,1l1,0l0,1l1,0l0,2l1,0l0,1l1,0l0,1l1,0l0,1l1,0l0,2l1,0l0,1l1,0l0,1l1,0l0,1l1,0l0,2l1,0l0,1l1,0l0,1l1,0l0,1l1,0l0,1l1,0l0,2l1,0l0,1l1,0l0,1l1,0l0,1l1,0l0,1l1,0l0,2l1,0l0,1l1,0l0,1l1,0l0,1l1,0l0,1l1,0l0,2l1,0l0,1l1,0l0,1l1,0l0,1l1,0l0,1l1,0l0,2l1,0l0,1l1,0l0,1l1,0l0,1l1,0l0,1l1,0l0,1l1,0l0,2l1,0l0,1l1,0l0,1l1,0l0,1l1,0l0,1l1,0l0,1l1,0l0,1l1,0l0,1l1,0l0,2l1,0l0,1l1,0l0,1l1,0l0,1l1,0l0,1l1,0l0,1l1,0l0,1l1,0l0,1l1,0l0,1l1,0l0,2l1,0l0,1l1,0l0,166l540,0l0,-167l1,0l0,-1l1,0l0,-1l1,0l0,-1l1,0l0,-1l1,0l0,-1l1,0l0,-1l1,0l0,-1l1,0l0,-1l1,0l0,-2l1,0l0,-1l1,0l0,-1l1,0l0,-1l1,0l0,-1l1,0l0,-1l1,0l0,-1l1,0l0,-1l1,0l0,-2l1,0l0,-1l1,0l0,-1l1,0l0,-1l1,0l0,-1l1,0l0,-1l1,0l0,-2l1,0l0,-1l1,0l0,-1l1,0l0,-1l1,0l0,-1l1,0l0,-1l1,0l0,-2l1,0l0,-1l1,0l0,-1l1,0l0,-1l1,0l0,-1l1,0l0,-2l1,0l0,-1l1,0l0,-1l1,0l0,-1l1,0l0,-1l1,0l0,-2l1,0l0,-1l1,0l0,-1l1,0l0,-1l1,0l0,-2l1,0l0,-1l1,0l0,-1l1,0l0,-1l1,0l0,-1l1,0l0,-2l1,0l0,-1l1,0l0,-1l1,0l0,-1l1,0l0,-2l1,0l0,-1l1,0l0,-1l1,0l0,-1l1,0l0,-2l1,0l0,-1l1,0l0,-1l1,0l0,-1l1,0l0,-2l1,0l0,-1l1,0l0,-1l1,0l0,-2l1,0l0,-1l1,0l0,-1l1,0l0,-1l1,0l0,-2l1,0l0,-1l1,0l0,-1l1,0l0,-1l1,0l0,-2l1,0l0,-1l1,0l0,-1l1,0l0,-2l1,0l0,-1l1,0l0,-1l1,0l0,-2l1,0l0,-1l1,0l0,-1l1,0l0,-2l1,0l0,-1l1,0l0,-1l1,0l0,-2l1,0l0,-1l1,0l0,-1l1,0l0,-2l1,0l0,-1l1,0l0,-1l1,0l0,-1l1,0l0,-2l1,0l0,-1l1,0l0,-1l1,0l0,-2l1,0l0,-1l1,0l0,-2l1,0l0,-1l1,0l0,-1l1,0l0,-2l1,0l0,-1l1,0l0,-1l1,0l0,-2l1,0l0,-1l1,0l0,-2l1,0l0,-1l1,0l0,-1l1,0l0,-2l1,0l0,-1l1,0l0,-1l1,0l0,-2l1,0l0,-1l1,0l0,-1l1,0l0,-2l1,0l0,-1l1,0l0,-2l1,0l0,-1l1,0l0,-1l1,0l0,-2l1,0l0,-1l1,0l0,-2l1,0l0,-1l1,0l0,-2l1,0l0,-1l1,0l0,-1l1,0l0,-2l1,0l0,-1l1,0l0,-2l1,0l0,-1l1,0l0,-2l1,0l0,-1l1,0l0,-1l1,0l0,-2l1,0l0,-1l1,0l0,-2l1,0l0,-1l1,0l0,-2l1,0l0,-1l1,0l0,-1l1,0l0,-2l1,0l0,-1l1,0l0,-2l1,0l0,-1l1,0l0,-2l1,0l0,-1l1,0l0,-2l1,0l0,-1l1,0l0,-2l1,0l0,-1l1,0l0,-2l1,0l0,-1l1,0l0,-2l1,0l0,-1l1,0l0,-2l1,0l0,-1l1,0l0,-2l1,0l0,-1l1,0l0,-2l1,0l0,-1l1,0l0,-2l1,0l0,-1l1,0l0,-2l1,0l0,-1l1,0l0,-2l1,0l0,-1l1,0l0,-2l1,0l0,-1l1,0l0,-2l1,0l0,-2l1,0l0,-1l1,0l0,-2l1,0l0,-1l1,0l0,-2l1,0l0,-1l1,0l0,-2l1,0l0,-2l1,0l0,-1l1,0l0,-2l1,0l0,-1l1,0l0,-2l1,0l0,-1l1,0l0,-2l1,0l0,-1l1,0l0,-2l1,0l0,-2l1,0l0,-1l1,0l0,-2l1,0l0,-1l1,0l0,-2l1,0l0,-2l1,0l0,-1l1,0l0,-2l1,0l0,-1l1,0l0,-2l1,0l0,-2l1,0l0,-1l1,0l0,-2l1,0l0,-2l1,0l0,-1l1,0l0,-2l1,0l0,-2l1,0l0,-1l1,0l0,-2l1,0l0,-1l1,0l0,-2l1,0l0,-2l1,0l0,-1l1,0l0,-2l1,0l0,-2l1,0l0,-1l1,0l0,-2l1,0l0,-2l1,0l0,-1l1,0l0,-2l1,0l0,-2l1,0l0,-1l1,0l0,-2l1,0l0,-2l1,0l0,-1l1,0l0,-2l1,0l0,-2l1,0l0,-2l1,0l0,-1l1,0l0,-2l1,0l0,-2l1,0l0,-2l1,0l0,-1l1,0l0,-2l1,0l0,-2l1,0l0,-1l1,0l0,-2l1,0l0,-2l1,0l0,-2l1,0l0,-1l1,0l0,-2l1,0l0,-2l1,0l0,-2l1,0l0,-1l1,0l0,-2l1,0l0,-2l1,0l0,-2l1,0l0,-1l1,0l0,-2l1,0l0,-2l1,0l0,-2l1,0l0,-2l1,0l0,-1l1,0l0,-2l1,0l0,-2l1,0l0,-2l1,0l0,-2l1,0l0,-2l1,0l0,-1l1,0l0,-2l1,0l0,-2l1,0l0,-2l1,0l0,-2l1,0l0,-2l1,0l0,-1l1,0l0,-2l1,0l0,-2l1,0l0,-2l1,0l0,-2l1,0l0,-1l1,0l0,-2l1,0l0,-2l1,0l0,-2l1,0l0,-2l1,0l0,-2l1,0l0,-2l1,0l0,-2l1,0l0,-2l1,0l0,-2l1,0l0,-1l1,0l0,-2l1,0l0,-2l1,0l0,-2l1,0l0,-2l1,0l0,-2l1,0l0,-2l1,0l0,-2l1,0l0,-2l1,0l0,-2l1,0l0,-2l1,0l0,-2l1,0l0,-1l1,0l0,-2l1,0l0,-2l1,0l0,-2l1,0l0,-2l1,0l0,-2l1,0l0,-2l1,0l0,-2l1,0l0,-2l1,0l0,-2l1,0l0,-2l1,0l0,-2l1,0l0,-2l1,0l0,-2l1,0l0,-3l1,0l0,-2l1,0l0,-2l1,0l0,-2l1,0l0,-2l1,0l0,-2l1,0l0,-2l1,0l0,-2l1,0l0,-2l1,0l0,-2l1,0l0,-3l1,0l0,-2l1,0l0,-2l1,0l0,-2l1,0l0,-2l1,0l0,-2l1,0l0,-2l1,0l0,-2l1,0l0,-3l1,0l0,-2l1,0l0,-2l1,0l0,-2l1,0l0,-3l1,0l0,-2l1,0l0,-2l1,0l0,-2l1,0l0,-3l1,0l0,-2l1,0l0,-2l1,0l0,-2l1,0l0,-3l1,0l0,-2l1,0l0,-2l1,0l0,-2l1,0l0,-2l1,0l0,-3l1,0l0,-2l1,0l0,-2l1,0l0,-2l1,0l0,-3l1,0l0,-2l1,0l0,-3l1,0l0,-2l1,0l0,-3l1,0l0,-2l1,0l0,-3l1,0l0,-2l1,0l0,-2l1,0l0,-3l1,0l0,-2l1,0l0,-3l1,0l0,-2l1,0l0,-3l1,0l0,-2l1,0l0,-3l1,0l0,-2l1,0l0,-2l1,0l0,-3l1,0l0,-3l1,0l0,-2l1,0l0,-3l1,0l0,-3l1,0l0,-2l1,0l0,-3l1,0l0,-3l1,0l0,-2l1,0l0,-3l1,0l0,-3l1,0l0,-2l1,0l0,-3l1,0l0,-3l1,0l0,-2l1,0l0,-3l1,0l0,-3l1,0l0,-3l1,0l0,-3l1,0l0,-3l1,0l0,-3l1,0l0,-3l1,0l0,-3l1,0l0,-3l1,0l0,-3l1,0l0,-3l1,0l0,-3l1,0l0,-3l1,0l0,-3l1,0l0,-2l1,0l0,-3l1,0l0,-4l1,0l0,-3l1,0l0,-3l1,0l0,-4l1,0l0,-3l1,0l0,-3l1,0l0,-4l1,0l0,-3l1,0l0,-4l1,0l0,-3l1,0l0,-3l1,0l0,-4l1,0l0,-3l1,0l0,-4l1,0l0,-4l1,0l0,-4l1,0l0,-4l1,0l0,-3l1,0l0,-4l1,0l0,-4l1,0l0,-4l1,0l0,-4l1,0l0,-4l1,0l0,-5l1,0l0,-4l1,0l0,-5l1,0l0,-4l1,0l0,-4l1,0l0,-5l1,0l0,-5l1,0l0,-5l1,0l0,-5l1,0l0,-5l1,0l0,-5l1,0l0,-6l1,0l0,-5l1,0l0,-7l1,0l0,-6l1,0l0,-6l1,0l0,-7l1,0l0,-7l1,0l0,-8l1,0l0,-8l1,0l0,-8l1,0l0,-11l1,0l0,-10l1,0l0,-13l1,0l0,-15l1,0l0,-186l-1,0l0,-6l-1,0l0,-5l-1,0l0,-4l-1,0l0,-3l-1,0l0,-4l-1,0l0,-3l-1,0l0,-2l-1,0l0,-3l-1,0l0,-2l-1,0l0,-2l-1,0l0,-2l-1,0l0,-2l-1,0l0,-2l-1,0l0,-2l-1,0l0,-1l-1,0l0,-2l-1,0l0,-1l-1,0l0,-2l-1,0l0,-1l-1,0l0,-1l-1,0l0,-1l-1,0l0,-1l-1,0l0,-1l-1,0l0,-1l-1,0l0,-1l-1,0l0,-1l-1,0l0,-1l-1,0l0,-1l-1,0l0,-1l-1,0l0,-1l-2,0l0,-1027l-1,0l0,-1l-1,0l0,-1l-1,0l0,-1l-1,0l0,-1l-2,0l0,-1l-1,0l0,-1l-1,0l0,-1l-1,0l0,-1l-1,0l0,-1l-1,0l0,-1l-1,0l0,-1l-1,0l0,-1l-1,0l0,-1l-1,0l0,-1l-1,0l0,-1l-1,0l0,-1l-1,0l0,-2l-1,0l0,-1l-1,0l0,-1l-1,0l0,-2l-1,0l0,-1l-1,0l0,-2l-1,0l0,-1l-1,0l0,-2l-1,0l0,-2l-1,0l0,-2l-1,0l0,-2l-1,0l0,-3l-1,0l0,-3l-1,0l0,-2l-1,0l0,-5l-1,0l0,-15l1,0l0,-5l1,0l0,-2l1,0l0,-2l1,0l0,-2l1,0l0,-2l1,0l0,-3l1,0l0,-1l1,0l0,-1l1,0l0,-2l1,0l0,-1l1,0l0,-1l1,0l0,-2l1,0l0,-1l1,0l0,-1l1,0l0,-1l1,0l0,-1l1,0l0,-1l1,0l0,-1l1,0l0,-1l1,0l0,-1l1,0l0,-1l1,0l0,-1l2,0l0,-1l1,0l0,-1l1,0l0,-1l1,0l0,-1l2,0l0,-1l1,0l0,-1l1,0l0,-1l2,0l0,-1l1,0l0,-1l2,0l0,-1l1,0l0,-1l2,0l0,-1l2,0l0,-1l1,0l0,-1l2,0l0,-1613l-1,0l0,-24l-1,0l0,-15l-1,0l0,-11l-1,0l0,-11l-1,0l0,-8l-1,0l0,-9l-1,0l0,-7l-1,0l0,-7l-1,0l0,-6l-1,0l0,-6l-1,0l0,-6l-1,0l0,-5l-1,0l0,-5l-1,0l0,-5l-1,0l0,-4l-1,0l0,-5l-1,0l0,-4l-1,0l0,-4l-1,0l0,-4l-1,0l0,-4l-1,0l0,-4l-1,0l0,-4l-1,0l0,-3l-1,0l0,-3l-1,0l0,-4l-1,0l0,-3l-1,0l0,-3l-1,0l0,-3l-1,0l0,-3l-1,0l0,-3l-1,0l0,-3l-1,0l0,-3l-1,0l0,-3l-1,0l0,-2l-1,0l0,-3l-1,0l0,-2l-1,0l0,-3l-1,0l0,-3l-1,0l0,-2l-1,0l0,-2l-1,0l0,-2l-1,0l0,-3l-1,0l0,-2l-1,0l0,-2l-1,0l0,-2l-1,0l0,-2l-1,0l0,-3l-1,0l0,-2l-1,0l0,-2l-1,0l0,-2l-1,0l0,-2l-1,0l0,-2l-1,0l0,-1l-1,0l0,-2l-1,0l0,-2l-1,0l0,-2l-1,0l0,-2l-1,0l0,-1l-1,0l0,-2l-1,0l0,-2l-1,0l0,-1l-1,0l0,-2l-1,0l0,-2l-1,0l0,-1l-1,0l0,-2l-1,0l0,-1l-1,0l0,-2l-1,0l0,-2l-1,0l0,-1l-1,0l0,-1l-1,0l0,-2l-1,0l0,-1l-1,0l0,-2l-1,0l0,-1l-1,0l0,-1l-1,0l0,-2l-1,0l0,-1l-1,0l0,-1l-1,0l0,-2l-1,0l0,-1l-1,0l0,-1l-1,0l0,-1l-1,0l0,-2l-1,0l0,-1l-1,0l0,-1l-1,0l0,-1l-1,0l0,-2l-1,0l0,-1l-1,0l0,-1l-1,0l0,-1l-1,0l0,-1l-1,0l0,-1l-1,0l0,-1l-1,0l0,-1l-1,0l0,-1l-1,0l0,-1l-1,0l0,-1l-1,0l0,-1l-1,0l0,-1l-1,0l0,-1l-1,0l0,-1l-1,0l0,-1l-1,0l0,-1l-1,0l0,-1l-1,0l0,-1l-1,0l0,-1l-1,0l0,-1l-1,0l0,-1l-1,0l0,-1l-1,0l0,-1l-2,0l0,-1l-1,0l0,-1l-1,0l0,-1l-1,0l0,-1l-1,0l0,-1l-2,0l0,-1l-1,0l0,-1l-1,0l0,-1l-1,0l0,-1l-2,0l0,-1l-1,0l0,-1l-2,0l0,-1l-1,0l0,-1l-1,0l0,-1l-2,0l0,-1l-1,0l0,-1l-2,0l0,-1l-1,0l0,-1l-2,0l0,-1l-2,0l0,-1l-1,0l0,-1l-2,0l0,-1l-2,0l0,-1l-1,0l0,-1l-2,0l0,-1l-2,0l0,-1l-2,0l0,-1l-2,0l0,-1l-2,0l0,-1l-2,0l0,-1l-2,0l0,-1l-2,0l0,-1l-2,0l0,-1l-2,0l0,-1l-2,0l0,-1l-3,0l0,-1l-2,0l0,-1l-3,0l0,-1l-2,0l0,-1l-3,0l0,-1l-3,0l0,-1l-3,0l0,-1l-3,0l0,-1l-3,0l0,-1l-4,0l0,-1l-4,0l0,-1l-4,0l0,-1l-4,0l0,-1l-5,0l0,-1l-6,0l0,-1l-6,0l0,-1l-8,0l0,-1l-10,0l0,-1l-17,0l0,-1l-15,0l0,-1l-9,0l0,-1l-12,0l0,-1l-16,0l0,-1"/>
      </g>
     </g>
    </g>
    <g id="g572">
     <g clip-path="url(#clipPath578)" id="g574">
      <path fill="url(#linearGradient586)" fill-rule="nonzero" id="path588" d="m4139.13,4281.11l-31.05,-1086.48l-480.97,0c0,0 -5.2,527.72 263.85,889.83l139.7,191.45l108.47,5.2"/>
     </g>
    </g>
    <g id="g590">
     <g clip-path="url(#clipPath596)" id="g592">
      <g clip-path="url(#clipPath602)" id="g598">
       <path fill="url(#linearGradient612)" fill-rule="nonzero" id="path614" d="m3528,3117l0,1l-2,0l0,1l-1,0l0,1l-1,0l0,1l-2,0l0,1l-1,0l0,1l-1,0l0,1l-1,0l0,1l-1,0l0,1l-1,0l0,2l-1,0l0,1l-1,0l0,1l-1,0l0,1l-1,0l0,2l-1,0l0,1l-1,0l0,2l-1,0l0,2l-1,0l0,1l-1,0l0,2l-1,0l0,2l-1,0l0,2l-1,0l0,3l-1,0l0,2l-1,0l0,3l-1,0l0,3l-1,0l0,3l-1,0l0,3l-1,0l0,4l-1,0l0,5l-1,0l0,5l-1,0l0,8l-1,0l0,12l1409,0l0,-18l-1,0l0,-6l-1,0l0,-5l-1,0l0,-4l-1,0l0,-3l-1,0l0,-4l-1,0l0,-3l-1,0l0,-2l-1,0l0,-3l-1,0l0,-2l-1,0l0,-2l-1,0l0,-2l-1,0l0,-2l-1,0l0,-2l-1,0l0,-2l-1,0l0,-1l-1,0l0,-2l-1,0l0,-1l-1,0l0,-2l-1,0l0,-1l-1,0l0,-1l-1,0l0,-1l-1,0l0,-1l-1,0l0,-1l-1,0l0,-1l-1,0l0,-1l-1,0l0,-1l-1,0l0,-1l-1,0l0,-1l-1,0l0,-1l-1,0l0,-1l-2,0l0,-1"/>
      </g>
     </g>
    </g>
    <g id="g616">
     <g clip-path="url(#clipPath622)" id="g618">
      <path fill="url(#linearGradient632)" fill-rule="nonzero" id="path634" d="m4882.41,1980.18c0,0 -44.37,22.17 -44.37,55.46c0,33.29 33.19,55.58 33.19,55.58l-1342.73,0c0,0 33.18,-22.29 33.18,-55.58c0,-33.29 -44.36,-55.46 -44.36,-55.46l1365.09,0"/>
     </g>
    </g>
    <path fill="#a3e1f9" fill-rule="nonzero" id="path636" d="m3783.7,4.91016c-216.44,0 -266.38,216.39084 -266.38,388.42984c0,171.98 0,471.629 0,471.629c0,0 0,538.161 0,732.391c0,194.19 0,382.82 0,382.82c0,0 44.36,22.17 44.36,55.46c0,33.29 -33.18,55.58 -33.18,55.58l0,1026.49c-33.26,22.17 -33.26,77.63 -33.26,77.63l0,105.46c0,94.35 5.52,266.34 144.24,543.76c0,0 -84.46,-237.33 -102.26,-392.78c-17.81,-155.45 -13.32,-253.19 -13.32,-253.19c0,0 0,-48.86 35.51,-66.62l-13.34,-1030.47c0,0 35.57,-13.29 35.57,-62.18c0,-48.9 -44.42,-71.07 -44.42,-71.07l0,-1581.297c0,0 -22.28,-359.8436 246.48,-382.04284"/>
    <path fill="#219ade" fill-rule="nonzero" id="path638" d="m4616.03,4.91016c216.43,0 266.38,216.39084 266.38,388.42984c0,171.98 0,471.629 0,471.629c0,0 0,538.161 0,732.391c0,194.19 0,382.82 0,382.82c0,0 -44.37,22.17 -44.37,55.46c0,33.29 33.19,55.58 33.19,55.58l0,1026.49c33.26,22.17 33.26,77.63 33.26,77.63l0,105.46c0,94.35 -5.52,266.34 -144.24,543.76c0,0 84.45,-237.33 102.27,-392.78c17.8,-155.45 13.34,-253.19 13.34,-253.19c0,0 0,-48.86 -35.54,-66.62l13.34,-1030.47c0,0 -35.57,-13.29 -35.57,-62.18c0,-48.9 44.43,-71.07 44.43,-71.07l0,-1581.297c0,0 22.27,-359.8436 -246.49,-382.04284"/>
    <g id="g640">
     <g clip-path="url(#clipPath646)" id="g642">
      <path fill="url(#linearGradient654)" fill-rule="nonzero" id="path656" d="m3627.11,2090.92l480.977,0l0,1025.55l-480.977,0l0,-1025.55z"/>
     </g>
    </g>
    <g id="g658">
     <g clip-path="url(#clipPath664)" id="g660">
      <path fill="url(#linearGradient672)" fill-rule="nonzero" id="path674" d="m4108.08,121.602c0,0 -60.77,-91.9731 -240.01,-91.9731c-206.02,0 -240.96,91.9731 -240.96,91.9731l0,1857.718l480.97,0l0,-1857.718"/>
     </g>
    </g>
    <path fill="#57c9f4" fill-rule="nonzero" id="path676" d="m4346.68,225.242c-40.36,68.867 -134.01,78.852 -142.97,79.66l0,0.196c0,0 -0.76,-0.11 -0.84,-0.11c-0.11,0 -0.86,0.11 -0.86,0.11l0,-0.196c-8.97,-0.808 -102.59,-10.793 -142.98,-79.66c0,0 -135.58,44.336 -216.3,-48.554c9.91,10.011 82.5,77.031 218.11,39.328c0,0 40.41,69.91 142.03,70.293c101.59,-0.383 142.03,-70.293 142.03,-70.293c135.57,37.703 208.22,-29.368 218.1,-39.328c-80.71,92.89 -216.32,48.554 -216.32,48.554"/>
    <path fill="#57c9f4" fill-rule="nonzero" id="path678" d="m4317.74,85.1953c0,0 -41.71,31.6677 -52.13,56.2777c-10.28,24.328 -30.94,51.886 -61.6,52.511l0,0.188c-0.2,0 -0.3,-0.109 -0.46,-0.109c-0.23,0 -0.3,0.109 -0.49,0.109l0,-0.188c-31.05,-0.625 -51.89,-28.183 -62.36,-52.511c-10.59,-24.61 -52.77,-56.2777 -52.77,-56.2777c-200.43,-98.4687 -456.6,-10.5273 -456.6,-10.5273c0,0 48.02,-76.73831 214.08,-72.18753c177.43,4.92187 226.99,50.29293 263.56,70.10933c35.73,19.3243 91.95,19.7813 94.58,19.7813c2.54,0 58.09,-0.457 93.38,-19.7813c36.16,-19.8164 85.1,-65.18746 260.45,-70.10933c164.05,-4.55078 211.47,72.18753 211.47,72.18753c0,0 -253.1,-87.9414 -451.11,10.5273"/>
    <path fill="#219ade" fill-rule="nonzero" id="path680" d="m3631.33,74.668c0,0 5.31,-9.043 19.76,-20.3828c-13.59,11.3671 -19.76,20.3828 -19.76,20.3828zm1117.95,-20.4414c14.35,11.3984 19.57,20.4414 19.57,20.4414c0,0 -6.08,-9.0157 -19.57,-20.4414zm-455.44,32.7539c-47.69,30.5395 -85.07,32.5395 -89.83,32.6485l0,0.027c0,0 -0.38,0 -0.46,0c-0.12,0 -0.49,0 -0.49,0l0,-0.027c-4.76,-0.109 -42.61,-2.109 -90.95,-32.6485c-51.7,-32.6446 -92.48,-72.1094 -266.62,-77.54691c-111.92,-3.46484 -168.25,24.44531 -194.4,44.85161c26.78,-22.4102 84.29,-54.84379 194.32,-51.80473c177.43,4.92187 226.99,50.29293 263.56,70.10933c35.73,19.3243 91.95,19.7813 94.58,19.7813c2.54,0 58.09,-0.457 93.38,-19.7813c36.16,-19.8164 70.7,-73.39058 257.68,-72.57808c108.73,0.46484 168.26,31.86328 194.67,54.21488c-25.76,-20.3477 -81.44,-48.25785 -192.01,-44.79301c-172.02,5.43751 -212.32,44.90231 -263.43,77.54691"/>
    <g id="g682">
     <g clip-path="url(#clipPath688)" id="g684">
      <path fill="url(#linearGradient696)" fill-rule="nonzero" id="path698" d="m4469.03,4447.85l-538.38,0l0,-165.98c0,0 -82.35,-86.54 -181.01,-242.34l900.38,0c-98.66,155.8 -180.99,242.34 -180.99,242.34l0,165.98"/>
     </g>
    </g>
    <g id="g700">
     <g clip-path="url(#clipPath706)" id="g702">
      <path fill="url(#linearGradient714)" fill-rule="nonzero" id="path716" d="m4030.64,4275.91l-139.7,-191.45c-10.9,-14.67 -21.22,-29.72 -31.27,-44.93l272.52,0l6.91,241.58l-108.46,-5.2"/>
     </g>
    </g>
    <g id="g718">
     <g clip-path="url(#clipPath724)" id="g720">
      <g clip-path="url(#clipPath730)" id="g726">
       <path fill="url(#linearGradient742)" fill-rule="nonzero" id="path744" d="m3870,4448l0,283l1,0l0,10l1,0l0,7l1,0l0,4l1,0l0,4l1,0l0,4l1,0l0,3l1,0l0,3l1,0l0,3l1,0l0,2l1,0l0,2l1,0l0,3l1,0l0,2l1,0l0,2l1,0l0,1l1,0l0,2l1,0l0,2l1,0l0,2l1,0l0,1l1,0l0,2l1,0l0,1l1,0l0,2l1,0l0,1l1,0l0,2l1,0l0,1l1,0l0,1l1,0l0,1l1,0l0,1l1,0l0,2l1,0l0,1l1,0l0,1l1,0l0,1l1,0l0,1l1,0l0,1l1,0l0,1l1,0l0,1l1,0l0,1l1,0l0,1l1,0l0,1l2,0l0,1l1,0l0,1l1,0l0,1l1,0l0,1l1,0l0,1l2,0l0,1l1,0l0,1l2,0l0,1l1,0l0,1l2,0l0,1l1,0l0,1l2,0l0,1l2,0l0,1l2,0l0,1l2,0l0,1l2,0l0,1l2,0l0,1l3,0l0,1l2,0l0,1l3,0l0,1l4,0l0,1l3,0l0,1l6,0l0,1l483,0l0,-1l6,0l0,-1l3,0l0,-1l4,0l0,-1l3,0l0,-1l2,0l0,-1l3,0l0,-1l2,0l0,-1l2,0l0,-1l2,0l0,-1l2,0l0,-1l2,0l0,-1l2,0l0,-1l1,0l0,-1l2,0l0,-1l1,0l0,-1l2,0l0,-1l1,0l0,-1l2,0l0,-1l1,0l0,-1l1,0l0,-1l2,0l0,-1l1,0l0,-1l1,0l0,-1l1,0l0,-1l1,0l0,-1l1,0l0,-1l1,0l0,-1l1,0l0,-1l1,0l0,-1l1,0l0,-1l1,0l0,-1l1,0l0,-1l1,0l0,-1l1,0l0,-1l1,0l0,-2l1,0l0,-1l1,0l0,-1l1,0l0,-1l1,0l0,-2l1,0l0,-1l1,0l0,-2l1,0l0,-1l1,0l0,-2l1,0l0,-2l1,0l0,-1l1,0l0,-2l1,0l0,-2l1,0l0,-2l1,0l0,-2l1,0l0,-2l1,0l0,-2l1,0l0,-3l1,0l0,-2l1,0l0,-3l1,0l0,-3l1,0l0,-3l1,0l0,-5l1,0l0,-4l1,0l0,-6l1,0l0,-8l1,0l0,-287"/>
      </g>
     </g>
    </g>
    <g id="g746">
     <g clip-path="url(#clipPath752)" id="g748">
      <path fill="url(#linearGradient760)" fill-rule="nonzero" id="path762" d="m3930.79,4281.87l538.242,0l0,19.5156l-538.242,0l0,-19.5156z"/>
     </g>
    </g>
    <g id="g764">
     <g clip-path="url(#clipPath770)" id="g766">
      <path fill="url(#linearGradient778)" fill-rule="nonzero" id="path780" d="m3930.79,4326.53l538.242,0l0,19.5195l-538.242,0l0,-19.5195z"/>
     </g>
    </g>
    <g id="g782">
     <g clip-path="url(#clipPath788)" id="g784">
      <path fill="url(#linearGradient796)" fill-rule="nonzero" id="path798" d="m3930.79,4374.84l538.242,0l0,19.543l-538.242,0l0,-19.543z"/>
     </g>
    </g>
    <g id="g800">
     <g clip-path="url(#clipPath806)" id="g802">
      <path fill="url(#linearGradient814)" fill-rule="nonzero" id="path816" d="m3829.28,4408.65l729.961,0l0,19.5156l-729.961,0l0,-19.5156z"/>
     </g>
    </g>
    <g id="g818">
     <g clip-path="url(#clipPath824)" id="g820">
      <path fill="url(#linearGradient834)" fill-rule="nonzero" id="path836" d="m4633.63,3956.35c0,0 86.64,-306.65 89.45,-732.64c0,0 37.46,0.65 76.17,-7.5c38.71,-8.1 37.54,39.43 37.54,39.43c0,0 -17.91,437.09 -203.16,700.71"/>
     </g>
    </g>
    <path fill="#a3e1f9" fill-rule="nonzero" id="path838" d="m4815.36,2124.76l-83.7,0l0,962.39l83.7,0l0,-962.39"/>
    <path fill="#a3e1f9" fill-rule="nonzero" id="path840" d="m4731.66,102.227l0,1834.653l83.7,0l0,-1599.9c0,0 0.16,-187.847 -83.7,-234.753"/>
    <g id="g842">
     <g clip-path="url(#clipPath848)" id="g844">
      <path fill="url(#linearGradient860)" fill-rule="nonzero" id="path862" d="m3527.37,2117.77l1341.09,0l0,972.918l-1341.09,0l0,-972.918z"/>
     </g>
    </g>
   </g>
  </g>
 </g>
</svg>