<?xml version="1.0" encoding="UTF-8" standalone="no"?>
<!DOCTYPE svg PUBLIC "-//W3C//DTD SVG 1.1//EN" "http://www.w3.org/Graphics/SVG/1.1/DTD/svg11.dtd">
<svg version="1.1" xmlns="http://www.w3.org/2000/svg" xmlns:xlink="http://www.w3.org/1999/xlink" preserveAspectRatio="xMidYMid meet" viewBox="210.48120300751884 110.48120300751876 210.263157894737 359.0601503759402" width="205.26" height="354.06"><defs><path d="M416.07 186.17C416.99 186.17 417.74 186.92 417.74 187.84C417.74 199.69 417.74 233.55 417.74 245.39C417.74 246.32 416.99 247.07 416.07 247.07C375.5 247.07 255.48 247.07 214.91 247.07C213.98 247.07 213.23 246.32 213.23 245.39C213.23 233.55 213.23 199.69 213.23 187.84C213.23 186.92 213.98 186.17 214.91 186.17C255.48 186.17 375.5 186.17 416.07 186.17Z" id="c1szwOgWFz"></path><path d="M361.13 112.48C366.65 112.48 371.13 116.96 371.13 122.48C371.13 132.66 371.13 153.2 371.13 163.38C371.13 168.91 366.65 173.38 361.13 173.38C340.57 173.38 288.9 173.38 268.35 173.38C262.82 173.38 258.35 168.91 258.35 163.38C258.35 153.2 258.35 132.66 258.35 122.48C258.35 116.96 262.82 112.48 268.35 112.48C288.9 112.48 340.57 112.48 361.13 112.48Z" id="a4AMIphtUa"></path><path d="M415.32 259.1C416.24 259.1 416.99 259.85 416.99 260.77C416.99 272.62 416.99 306.48 416.99 318.32C416.99 319.25 416.24 320 415.32 320C374.75 320 254.73 320 214.16 320C213.23 320 212.48 319.25 212.48 318.32C212.48 306.48 212.48 272.62 212.48 260.77C212.48 259.85 213.23 259.1 214.16 259.1C254.73 259.1 374.75 259.1 415.32 259.1Z" id="b1l7CC5dV1"></path><path d="M416.07 405.64C416.99 405.64 417.74 406.39 417.74 407.32C417.74 419.16 417.74 453.02 417.74 464.86C417.74 465.79 416.99 466.54 416.07 466.54C375.5 466.54 255.48 466.54 214.91 466.54C213.98 466.54 213.23 465.79 213.23 464.86C213.23 453.02 213.23 419.16 213.23 407.32C213.23 406.39 213.98 405.64 214.91 405.64C255.48 405.64 375.5 405.64 416.07 405.64Z" id="a1R31mjOvp"></path><path d="M415.32 332.26C416.24 332.26 416.99 333.01 416.99 333.93C416.99 345.78 416.99 379.64 416.99 391.48C416.99 392.41 416.24 393.16 415.32 393.16C374.75 393.16 254.73 393.16 214.16 393.16C213.23 393.16 212.48 392.41 212.48 391.48C212.48 379.64 212.48 345.78 212.48 333.93C212.48 333.01 213.23 332.26 214.16 332.26C254.73 332.26 374.75 332.26 415.32 332.26Z" id="c26IDa55Vp"></path></defs><g><g><use xlink:href="#c1szwOgWFz" opacity="1" fill="#7afbff" fill-opacity="0.3"></use><g><use xlink:href="#c1szwOgWFz" opacity="1" fill-opacity="0" stroke="#000000" stroke-width="4" stroke-opacity="1"></use></g></g><g><use xlink:href="#a4AMIphtUa" opacity="1" fill="#7afbff" fill-opacity="0.3"></use><g><use xlink:href="#a4AMIphtUa" opacity="1" fill-opacity="0" stroke="#000000" stroke-width="4" stroke-opacity="1"></use></g></g><g><use xlink:href="#b1l7CC5dV1" opacity="1" fill="#7afbff" fill-opacity="0.3"></use><g><use xlink:href="#b1l7CC5dV1" opacity="1" fill-opacity="0" stroke="#000000" stroke-width="4" stroke-opacity="1"></use></g></g><g><use xlink:href="#a1R31mjOvp" opacity="1" fill="#7afbff" fill-opacity="0.3"></use><g><use xlink:href="#a1R31mjOvp" opacity="1" fill-opacity="0" stroke="#000000" stroke-width="4" stroke-opacity="1"></use></g></g><g><use xlink:href="#c26IDa55Vp" opacity="1" fill="#7afbff" fill-opacity="0.3"></use><g><use xlink:href="#c26IDa55Vp" opacity="1" fill-opacity="0" stroke="#000000" stroke-width="4" stroke-opacity="1"></use></g></g></g></svg>